<svg xmlns="http://www.w3.org/2000/svg" style="width: var(--icon-width, 18px); height: var(--icon-height, 18px);" viewBox="0 0 18 18">
  <path fill="var(--icon-fill, #181D1E)" fill-rule="evenodd" d="M4.959 3.5c-.91 0-1.445.579-1.503.645a.483.483 0 0 0 .049.686c.204.179.518.16.703-.039.011-.012.292-.308.75-.308.36 0 .543.137.543.41 0 .334-.366.41-.494.41h-.173c-.276 0-.5.22-.5.491 0 .272.224.492.5.492.31 0 .833.086.833.41 0 .356-.39.41-.622.41-.538 0-.824-.296-.833-.304a.507.507 0 0 0-.705-.051.486.486 0 0 0-.052.693c.058.066.595.645 1.59.645.97 0 1.622-.56 1.622-1.393a1.23 1.23 0 0 0-.453-.968c.177-.221.287-.503.287-.836 0-.82-.634-1.393-1.542-1.393ZM13 3.5c-.919 0-1.667.735-1.667 1.64v1.31c0 .905.748 1.64 1.667 1.64s1.667-.735 1.667-1.64V5.14c0-.905-.748-1.64-1.667-1.64ZM7.333 6.365c0-2.184 1.512-2.829 2.31-2.864a.499.499 0 0 1 .523.468c.012.27-.199.5-.473.514a1.42 1.42 0 0 0-.779.333l.03-.002L9 4.812c.919 0 1.667.735 1.667 1.639S9.919 8.09 9 8.09s-1.667-.736-1.667-1.64l.002-.034.002-.024-.002-.013-.002-.015ZM13 4.484c.368 0 .667.294.667.655v1.312a.662.662 0 0 1-.667.656.662.662 0 0 1-.667-.656V5.139c0-.361.3-.655.667-.655ZM9.667 6.45A.662.662 0 0 0 9 5.795a.662.662 0 0 0-.667.656c0 .362.3.656.667.656a.662.662 0 0 0 .667-.656Zm-6.71 2.152C1.632 9.1 1 9.76 1 10.394c0 1.248 2.446 2.586 7.796 2.62l-.65.64a.487.487 0 0 0-.137.478.506.506 0 0 0 .845.217l1.5-1.476a.486.486 0 0 0 0-.695l-1.5-1.476a.504.504 0 0 0-.822.158.486.486 0 0 0 .114.538l.644.633C4.397 11.997 2 10.94 2 10.394c0-.33.877-.845 2.532-1.21a9.054 9.054 0 0 1-1.575-.581Zm10.511.582a9.07 9.07 0 0 0 1.575-.582C16.368 9.1 17 9.76 17 10.394c0 1.518-2.873 2.152-4.585 2.395a.498.498 0 0 1-.566-.416.493.493 0 0 1 .424-.557C15.062 11.421 16 10.674 16 10.394c0-.33-.877-.844-2.532-1.209Z" clip-rule="evenodd"/>
</svg>
