<svg xmlns="http://www.w3.org/2000/svg" style="width: var(--icon-width, 18px); height: var(--icon-height, 18px);" viewBox="0 0 18 18">
  <path fill="var(--icon-fill, #181D1E)" fill-rule="evenodd" d="M3 3.786A2.796 2.796 0 0 1 5.786 1h6.428A2.796 2.796 0 0 1 15 3.786v12.857a.643.643 0 0 1-1.019.521L9 13.578l-4.981 3.586A.643.643 0 0 1 3 16.643V3.786Zm9.214-1.5H5.786c-.836 0-1.5.664-1.5 1.5v11.602l4.338-3.124a.643.643 0 0 1 .752 0l4.338 3.124V3.786c0-.836-.664-1.5-1.5-1.5Z" clip-rule="evenodd"/>
</svg>
