<svg xmlns="http://www.w3.org/2000/svg" style="width: var(--icon-width, 18px); height: var(--icon-height, 18px);" viewBox="0 0 18 18">
  <path fill="var(--icon-fill, #181D1E)" fill-rule="evenodd" d="M8.614 1.16a.546.546 0 0 1 .772 0l2.022 2.022h2.865c.301 0 .545.244.545.545v2.865l2.022 2.022a.546.546 0 0 1 0 .772l-2.022 2.022v2.865a.546.546 0 0 1-.545.545h-2.865L9.386 16.84a.546.546 0 0 1-.772 0l-2.022-2.022H3.727a.545.545 0 0 1-.545-.545v-2.865L1.16 9.386a.546.546 0 0 1 0-.771l2.022-2.023V3.727c0-.3.244-.545.545-.545h2.865L8.614 1.16Zm2.182 2.953L9 2.317v13.367l1.796-1.797a.545.545 0 0 1 .386-.16h2.545v-2.545c0-.145.058-.283.16-.386L15.683 9l-1.796-1.796a.546.546 0 0 1-.16-.386V4.273h-2.545a.545.545 0 0 1-.386-.16Z" clip-rule="evenodd"/>
</svg>
