<svg xmlns="http://www.w3.org/2000/svg" fill="currentColor" viewBox="0 0 18 18">
  <path fill="#181D1E" fill-rule="evenodd" d="M1 9c0-4.411 3.589-8 8-8s8 3.589 8 8-3.589 8-8 8c-1.309 0-2.532-.345-3.623-.903l-3.107.867c-.721.202-1.434-.511-1.232-1.233l.867-3.104C1.345 11.535 1 10.31 1 9Zm14.8 0c0-3.763-3.038-6.8-6.8-6.8A6.791 6.791 0 0 0 2.2 9c0 1.202.313 2.325.86 3.306a.6.6 0 0 1 .054.453l-.825 2.954 2.955-.825a.6.6 0 0 1 .453.054c.98.546 2.102.858 3.303.858 3.762 0 6.8-3.038 6.8-6.8ZM5.6 7a.6.6 0 1 0 0 1.2h6.8a.6.6 0 1 0 0-1.2H5.6Zm-.527 3.098A.6.6 0 0 1 5.6 9.8h5.2a.6.6 0 1 1 0 1.2H5.6a.6.6 0 0 1-.527-.902Z" clip-rule="evenodd"/>
</svg>
