<svg xmlns="http://www.w3.org/2000/svg" fill="currentColor" viewBox="0 0 18 18">
  <path fill="#181D1E" fill-rule="evenodd" d="M1 3.73C1 2.778 1.77 2 2.714 2h11.81c.945 0 1.714.777 1.714 1.73v5.436a4.874 4.874 0 0 0-1.143-.831V3.73a.573.573 0 0 0-.571-.577H2.714a.573.573 0 0 0-.571.577v8.846c0 .32.255.577.571.577h5.162c.027.4.103.784.221 1.154H2.714A1.725 1.725 0 0 1 1 12.577V3.73Zm3.429 2.885c0-.637.511-1.153 1.142-1.153.632 0 1.143.516 1.143 1.153 0 .638-.511 1.154-1.143 1.154A1.148 1.148 0 0 1 4.43 6.615Zm5.142-.384a.57.57 0 0 0-.501.286.582.582 0 0 0 0 .582.57.57 0 0 0 .501.286H13a.57.57 0 0 0 .502-.286.582.582 0 0 0 0-.582A.57.57 0 0 0 13 6.23H9.571ZM3.667 9.115c0-.318.256-.577.571-.577h2.667c.315 0 .571.259.571.577 0 .577 0 1.731-1.867 1.731h-.076c-1.866 0-1.866-1.154-1.866-1.73Zm9.143-.577c-2.315 0-4.191 1.895-4.191 4.231 0 2.337 1.876 4.231 4.19 4.231C15.124 17 17 15.106 17 12.77c0-2.337-1.876-4.232-4.19-4.232Zm2.555 2.42a.378.378 0 0 0-.54 0l-2.777 2.806-1.255-1.267a.378.378 0 0 0-.538 0 .387.387 0 0 0 0 .544l1.523 1.539a.378.378 0 0 0 .539 0l3.048-3.077a.387.387 0 0 0 0-.544Z" clip-rule="evenodd"/>
</svg>
