<svg xmlns="http://www.w3.org/2000/svg" fill="currentColor" viewBox="0 0 18 18">
  <path fill="#181D1E" fill-rule="evenodd" d="M4.139 2A2.148 2.148 0 0 0 2 4.139v9.722C2 15.036 2.965 16 4.139 16h9.722A2.148 2.148 0 0 0 16 13.861V4.14A2.148 2.148 0 0 0 13.861 2H4.14Zm0 1.167h9.722c.544 0 .972.428.972.972v9.722a.964.964 0 0 1-.972.972H4.14a.964.964 0 0 1-.972-.972V4.14c0-.544.428-.972.972-.972ZM12.67 6.06a.583.583 0 1 1 .825.825L8.05 12.329a.583.583 0 0 1-.825 0L4.893 9.996a.583.583 0 1 1 .825-.825l1.92 1.92 5.033-5.031Z" clip-rule="evenodd"/>
</svg>
