<svg xmlns="http://www.w3.org/2000/svg" style="width: var(--icon-width, 18px); height: var(--icon-height, 18px);" viewBox="0 0 18 18">
  <path fill="var(--icon-fill, #181D1E)" fill-rule="evenodd" d="M1 9c0-4.411 3.589-8 8-8s8 3.589 8 8-3.589 8-8 8-8-3.589-8-8Zm14.8 0c0-3.763-3.038-6.8-6.8-6.8A6.791 6.791 0 0 0 2.2 9c0 3.762 3.037 6.8 6.8 6.8 3.762 0 6.8-3.038 6.8-6.8ZM7.166 5.471c-.503.031-.966.447-.966.992v5.074c0 .727.823 1.223 1.466.886v-.001l4.82-2.538v.001c.683-.358.683-1.411.002-1.77h-.001L7.666 5.577a.942.942 0 0 0-.5-.106ZM11.592 9 7.4 6.793v4.413L11.592 9Z" clip-rule="evenodd"/>
</svg>
