<svg xmlns="http://www.w3.org/2000/svg" style="width: var(--icon-width, 18px); height: var(--icon-height, 18px);" viewBox="0 0 18 18">
  <path fill="var(--icon-fill, #181D1E)" fill-rule="evenodd" d="M1 9c0-4.412 3.588-8 8-8s8 3.588 8 8-3.588 8-8 8-8-3.588-8-8Zm14.884 0A6.875 6.875 0 0 0 9 2.116 6.875 6.875 0 0 0 2.116 9 6.875 6.875 0 0 0 9 15.884 6.875 6.875 0 0 0 15.884 9Zm-3.977-3.467a.558.558 0 0 0-.229.05l-4 1.818a.558.558 0 0 0-.277.277l-1.818 4a.558.558 0 0 0 .739.74l4-1.82a.557.557 0 0 0 .277-.276l1.818-4a.558.558 0 0 0-.51-.79ZM9.669 9.669l1.116-2.454L8.33 8.331l-1.116 2.454L9.67 9.669Z" clip-rule="evenodd"/>
</svg>
