<svg xmlns="http://www.w3.org/2000/svg" style="width: var(--icon-width, 18px); height: var(--icon-height, 18px);" viewBox="0 0 18 18">
  <path fill="var(--icon-fill, #181D1E)" fill-rule="evenodd" d="M0 5.66A2.669 2.669 0 0 1 2.66 3h12.68A2.669 2.669 0 0 1 18 5.66v6.954a2.668 2.668 0 0 1-2.66 2.659H2.66A2.669 2.669 0 0 1 0 12.613V5.66Zm15.34-1.433H2.66c-.799 0-1.433.634-1.433 1.432v.614h15.546v-.614c0-.798-.634-1.432-1.432-1.432ZM1.228 7.91h15.546v4.705c0 .797-.634 1.431-1.432 1.431H2.659a1.423 1.423 0 0 1-1.432-1.431V7.909Zm10.303 3.577a.614.614 0 0 1 .538-.304h2.455a.614.614 0 1 1 0 1.227h-2.455a.614.614 0 0 1-.538-.923Z" clip-rule="evenodd"/>
</svg>
