<svg xmlns="http://www.w3.org/2000/svg" fill="currentColor" viewBox="0 0 18 18">
  <path fill="#181D1E" fill-rule="evenodd" d="M9.001 1c-1.3 0-2.367 1.082-2.367 2.4H4.166a.584.584 0 0 0-.192 0H2.49a.59.59 0 0 0-.52.298.607.607 0 0 0 0 .604.59.59 0 0 0 .52.298h.987v10.2c0 1.208.979 2.2 2.17 2.2h6.708c1.192 0 2.17-.992 2.17-2.2V4.6h.987a.59.59 0 0 0 .52-.298.607.607 0 0 0 0-.604.59.59 0 0 0-.52-.298h-1.481a.584.584 0 0 0-.192 0h-2.47C11.369 2.082 10.302 1 9 1Zm0 1.2c.66 0 1.184.53 1.184 1.2H7.817c0-.67.524-1.2 1.184-1.2Zm4.34 2.4h-8.68v10.2c0 .56.434 1 .986 1h6.708c.552 0 .987-.44.987-1V4.6Zm-5.73 1.991a.596.596 0 0 0-.583.609v6a.602.602 0 0 0 .294.527.586.586 0 0 0 .597 0 .602.602 0 0 0 .293-.527v-6a.604.604 0 0 0-.174-.433.588.588 0 0 0-.427-.176Zm2.18.609a.596.596 0 0 1 .582-.609.591.591 0 0 1 .428.176c.113.114.175.27.173.433v6a.602.602 0 0 1-.293.527.585.585 0 0 1-.597 0 .602.602 0 0 1-.294-.527v-6Z" clip-rule="evenodd"/>
</svg>
