<svg xmlns="http://www.w3.org/2000/svg" style="width: var(--icon-width, 18px); height: var(--icon-height, 18px);" viewBox="0 0 18 18">
  <path fill="var(--icon-fill, #181D1E)" fill-rule="evenodd" d="M4.4 1c-.987 0-1.8.813-1.8 1.8v12.4c0 .987.813 1.8 1.8 1.8h9.2c.987 0 1.8-.813 1.8-1.8V6.8a.6.6 0 0 0-.176-.424l-.006-.006-5.194-5.194A.6.6 0 0 0 9.6 1H4.4Zm0 1.2H9v3.4c0 .987.813 1.8 1.8 1.8h3.4v7.8a.59.59 0 0 1-.6.6H4.4a.591.591 0 0 1-.6-.6V2.8c0-.339.261-.6.6-.6Zm8.952 4L10.2 3.048V5.6c0 .339.261.6.6.6h2.552ZM6.4 9.4a.6.6 0 1 0 0 1.2h5.2a.6.6 0 1 0 0-1.2H6.4Zm-.527 3.098A.6.6 0 0 1 6.4 12.2H10a.6.6 0 1 1 0 1.2H6.4a.6.6 0 0 1-.527-.902Z" clip-rule="evenodd"/>
</svg>
