<svg xmlns="http://www.w3.org/2000/svg" style="width: var(--icon-width, 18px); height: var(--icon-height, 18px);" viewBox="0 0 18 18">
  <path fill="var(--icon-fill, #181D1E)" fill-rule="evenodd" d="M1 9.286C1 8.03 2.082 7 3.4 7c1.318 0 2.4 1.03 2.4 2.286 0 1.255-1.082 2.285-2.4 2.285-1.318 0-2.4-1.03-2.4-2.285Zm5.6 0C6.6 8.03 7.682 7 9 7c1.318 0 2.4 1.03 2.4 2.286 0 1.255-1.082 2.285-2.4 2.285-1.318 0-2.4-1.03-2.4-2.285ZM14.6 7c-1.318 0-2.4 1.03-2.4 2.286 0 1.255 1.082 2.285 2.4 2.285 1.318 0 2.4-1.03 2.4-2.285C17 8.03 15.918 7 14.6 7Zm-10 2.286c0-.638-.53-1.143-1.2-1.143-.67 0-1.2.505-1.2 1.143 0 .637.53 1.143 1.2 1.143.67 0 1.2-.506 1.2-1.143ZM9 8.143c.67 0 1.2.505 1.2 1.143 0 .637-.53 1.143-1.2 1.143-.67 0-1.2-.506-1.2-1.143 0-.638.53-1.143 1.2-1.143Zm6.8 1.143c0-.638-.53-1.143-1.2-1.143-.67 0-1.2.505-1.2 1.143 0 .637.53 1.143 1.2 1.143.67 0 1.2-.506 1.2-1.143Z" clip-rule="evenodd"/>
</svg>
