<svg xmlns="http://www.w3.org/2000/svg" fill="currentColor" viewBox="0 0 18 18">
  <path fill="#181D1E" fill-rule="evenodd" d="M8.222 2.788a.778.778 0 1 1 1.556 0v7.45l1.005-1.005a.778.778 0 1 1 1.1 1.099L9.55 12.664a.778.778 0 0 1-1.1 0l-2.333-2.332a.777.777 0 1 1 1.1-1.099l1.005 1.005v-7.45ZM2 12.503a.778.778 0 1 1 1.556 0v1.165c0 .439.339.778.777.778h9.334a.766.766 0 0 0 .777-.778v-1.165a.777.777 0 1 1 1.556 0v1.165A2.344 2.344 0 0 1 13.666 16H4.333A2.344 2.344 0 0 1 2 13.668v-1.165Z" clip-rule="evenodd"/>
</svg>
