<svg xmlns="http://www.w3.org/2000/svg" fill="currentColor" viewBox="0 0 18 18">
  <path fill="#181D1E" fill-rule="evenodd" d="M10.877 1.446 9.096 3.228a1.524 1.524 0 0 0 0 2.156l.66.66-3.711 3.712-.661-.66a1.524 1.524 0 0 0-2.156 0l-1.782 1.781a1.524 1.524 0 0 0 0 2.156l3.52 3.52a1.523 1.523 0 0 0 2.156 0l1.782-1.781a1.524 1.524 0 0 0 0-2.156l-.66-.66 3.711-3.712.661.66c.595.596 1.56.596 2.156 0l1.781-1.782a1.524 1.524 0 0 0 0-2.155l-3.52-3.52a1.524 1.524 0 0 0-2.155 0Zm1.887 5.99.66.66c.15.149.39.149.54 0l1.781-1.782a.381.381 0 0 0 0-.539l-3.52-3.52a.381.381 0 0 0-.54 0l-1.78 1.782a.381.381 0 0 0 0 .539l.66.66 2.2 2.2ZM4.576 9.903l.66.66 2.2 2.2.66.66a.381.381 0 0 1 0 .54l-1.782 1.781a.381.381 0 0 1-.539 0l-3.52-3.52a.381.381 0 0 1 0-.54l1.782-1.781a.381.381 0 0 1 .539 0Zm6.57-2.468-3.71 3.71-.583-.582 3.71-3.71.583.582Z" clip-rule="evenodd"/>
</svg>
