<svg xmlns="http://www.w3.org/2000/svg" style="width: var(--icon-width, 18px); height: var(--icon-height, 18px);" viewBox="0 0 18 18">
  <path fill="var(--icon-fill, #181D1E)" fill-rule="evenodd" d="M14.056 1c-.756 0-1.512.287-2.084.86l-9.323 9.32a1.474 1.474 0 0 0-.375.639l-1.25 4.375a.632.632 0 0 0 .78.78l4.377-1.249c.24-.07.46-.197.638-.375l9.321-9.32a2.957 2.957 0 0 0 0-4.17A2.938 2.938 0 0 0 14.056 1Zm0 1.256c.43 0 .86.166 1.19.497h.001a1.675 1.675 0 0 1 0 2.382l-.817.817-2.382-2.382.817-.817a1.679 1.679 0 0 1 1.19-.497Zm-.52 4.59-2.381-2.383-7.613 7.612a.206.206 0 0 0-.053.09v.001L2.55 15.45l3.282-.938a.212.212 0 0 0 .091-.053l7.613-7.613Z" clip-rule="evenodd"/>
</svg>
