<svg xmlns="http://www.w3.org/2000/svg" style="width: var(--icon-width, 18px); height: var(--icon-height, 18px);" viewBox="0 0 18 18">
  <path fill="var(--icon-fill, #181D1E)" fill-rule="evenodd" d="M4.119 3.444A2.454 2.454 0 0 1 6.562 1h7.995A2.454 2.454 0 0 1 17 3.444v11.112A2.454 2.454 0 0 1 14.557 17H6.562a2.454 2.454 0 0 1-2.443-2.444v-2.658a.667.667 0 1 1 1.332 0v2.658a1.1 1.1 0 0 0 1.11 1.11h7.996a1.1 1.1 0 0 0 1.11-1.11V3.444a1.1 1.1 0 0 0-1.11-1.11H6.562a1.1 1.1 0 0 0-1.11 1.11v2.667a.667.667 0 1 1-1.333 0V3.444Zm4.484 2.64a.666.666 0 0 1 1.095-.213l2.665 2.666c.26.26.26.683 0 .943l-2.665 2.667a.666.666 0 1 1-.942-.943l1.528-1.53-8.61-.007a.666.666 0 1 1 .003-1.334l8.606.008-1.527-1.528a.667.667 0 0 1-.153-.728Z" clip-rule="evenodd"/>
</svg>
