<svg
    viewBox="0 0 24 24"
    fill="none"
    xmlns="http://www.w3.org/2000/svg"
    style="width: var(--icon-width, 24px); height: var(--icon-height, 24px)">
    <path
        fill-rule="evenodd"
        clip-rule="evenodd"
        d="M1.33301 12C1.33301 17.8815 6.11811 22.6666 11.9997 22.6666C17.8812 22.6666 22.6663 17.8815 22.6663 12C22.6663 6.1184 17.8812 1.33329 11.9997 1.33329C6.11811 1.33329 1.33301 6.1184 1.33301 12ZM21.0663 12C21.0663 17.0168 17.0165 21.0666 11.9997 21.0666C6.98281 21.0666 2.93301 17.0168 2.93301 12C2.93301 6.9831 6.98281 2.93329 11.9997 2.93329C17.0165 2.93329 21.0663 6.9831 21.0663 12ZM11.9997 17.3333C11.4106 17.3333 10.933 16.8557 10.933 16.2666C10.933 15.6775 11.4106 15.2 11.9997 15.2C12.5888 15.2 13.0663 15.6775 13.0663 16.2666C13.0663 16.8557 12.5888 17.3333 11.9997 17.3333ZM11.1997 12.8C11.1933 13.2414 11.5458 13.6045 11.9872 13.6114C12.2035 13.6148 12.412 13.5304 12.5651 13.3775C12.7181 13.2247 12.8028 13.0163 12.7997 12.8V6.93329C12.8038 6.64478 12.6522 6.37643 12.403 6.23098C12.1538 6.08554 11.8456 6.08554 11.5964 6.23098C11.3472 6.37643 11.1956 6.64478 11.1997 6.93329V12.8Z"
        fill="var(--icon-fill, #E83623)" />
</svg>
