<svg xmlns="http://www.w3.org/2000/svg" fill="currentColor" viewBox="0 0 18 18">
  <path fill="#181D1E" fill-rule="evenodd" d="M1 3.444A2.455 2.455 0 0 1 3.444 1h8a2.455 2.455 0 0 1 2.445 2.444.667.667 0 1 1-1.333 0 1.1 1.1 0 0 0-1.111-1.11h-8c-.622 0-1.112.489-1.112 1.11v11.112a1.1 1.1 0 0 0 1.111 1.11h8c.622 0 1.112-.489 1.112-1.11a.667.667 0 1 1 1.333 0A2.455 2.455 0 0 1 11.445 17h-8A2.455 2.455 0 0 1 1 14.556V3.444Zm11.598 2.187a.667.667 0 0 1 1.096-.213l3.11 3.11a.666.666 0 0 1 0 .943l-3.11 3.112a.667.667 0 1 1-.943-.943l1.973-1.973H5.222a.667.667 0 1 1 0-1.334h9.502L12.751 6.36a.667.667 0 0 1-.153-.729Z" clip-rule="evenodd"/>
</svg>
