<svg xmlns="http://www.w3.org/2000/svg" fill="currentColor" viewBox="0 0 18 18">
  <path fill="#181D1E" fill-rule="evenodd" d="M1 4.568C1 3.157 2.171 2 3.6 2h10.8C15.829 2 17 3.157 17 4.568v6.717c0 1.411-1.171 2.568-2.6 2.568H9.8l-4 2.964c-.63.465-1.6-.014-1.6-.79v-2.174h-.6c-1.429 0-2.6-1.157-2.6-2.568V4.568Zm13.4-1.383H3.6c-.78 0-1.4.613-1.4 1.383v6.717c0 .77.62 1.383 1.4 1.383h1.2c.331 0 .6.265.6.593v2.37l3.84-2.844a.604.604 0 0 1 .36-.119h4.8c.78 0 1.4-.612 1.4-1.383V4.568c0-.77-.62-1.383-1.4-1.383Z" clip-rule="evenodd"/>
</svg>
