<svg xmlns="http://www.w3.org/2000/svg" style="width: var(--icon-width, 18px); height: var(--icon-height, 18px);" viewBox="0 0 18 18">
  <path fill="var(--icon-fill, #181D1E)" fill-rule="evenodd" d="M12.177 8.043c1.18 0 2.17-.81 2.457-1.89h1.72a.63.63 0 1 0 0-1.26h-1.72A2.549 2.549 0 0 0 12.177 3c-1.18 0-2.17.81-2.457 1.891H1.646a.63.63 0 1 0 0 1.26H9.72a2.549 2.549 0 0 0 2.457 1.892Zm-8.811 3.07a2.549 2.549 0 0 1 2.457-1.89c1.18 0 2.17.81 2.457 1.89h8.074a.63.63 0 1 1 0 1.26H8.28a2.549 2.549 0 0 1-2.457 1.893c-1.18 0-2.17-.81-2.457-1.892h-1.72a.63.63 0 1 1 0-1.26h1.72Zm3.724.574a1.253 1.253 0 0 0-1.267-1.204c-.692 0-1.237.527-1.267 1.202a.897.897 0 0 1 0 .115c.03.678.575 1.205 1.267 1.205s1.237-.527 1.267-1.202a.898.898 0 0 1 0-.116Zm3.82-6.109c.03.677.575 1.204 1.267 1.204s1.237-.527 1.267-1.201a.894.894 0 0 1 0-.116 1.253 1.253 0 0 0-1.267-1.204c-.692 0-1.237.527-1.267 1.202a.93.93 0 0 1 0 .115Z" clip-rule="evenodd"/>
</svg>
