<svg xmlns="http://www.w3.org/2000/svg" style="width: var(--icon-width, 18px); height: var(--icon-height, 18px);" viewBox="0 0 18 18">
  <path fill="var(--icon-fill, #181D1E)" fill-rule="evenodd" d="M0 7.208C0 2.904 2.68 2 4.929 2A5.44 5.44 0 0 1 9 3.831 5.44 5.44 0 0 1 13.071 2C15.32 2 18 2.904 18 7.208c0 6.182-8.399 9.603-8.756 9.746a.654.654 0 0 1-.488 0c-.271-.109-5.189-2.115-7.531-5.787h1.56l.007-.001.004-.001C4.768 13.688 8.077 15.282 9 15.691c1.339-.593 7.714-3.677 7.714-8.483 0-2.737-1.123-3.958-3.643-3.958-1.44 0-2.787.755-3.515 1.97A.648.648 0 0 1 9 5.53a.648.648 0 0 1-.556-.31C7.716 4.005 6.37 3.25 4.93 3.25c-2.52 0-3.643 1.22-3.643 3.958 0 .358.038.704.105 1.042 0 0-1.289-.012-1.285-.005A3.843 3.843 0 0 1 0 7.208Zm7.343-.675a.636.636 0 0 1 .612-.366.64.64 0 0 1 .579.414l1.636 4.455 1.04-2.024a.645.645 0 0 1 .576-.345h.861a1.08 1.08 0 0 1 .853-.417c.592 0 1.071.466 1.071 1.042 0 .575-.48 1.041-1.071 1.041-.35 0-.657-.165-.853-.417h-.464l-1.537 2.989a.645.645 0 0 1-.614.343.64.64 0 0 1-.566-.412l-1.61-4.38-1.485 3.178a.66.66 0 0 1-.588.366.645.645 0 0 1-.585-.371L3.987 8.978l-.65 1.052a.644.644 0 0 1-.551.303H1.07a.634.634 0 0 1-.642-.625c0-.345.288-.625.642-.625h1.35l1.1-1.78a.643.643 0 0 1 .554-.302h.036c.239.015.45.157.548.37l1.133 2.48 1.551-3.318Z" clip-rule="evenodd"/>
</svg>
