<svg xmlns="http://www.w3.org/2000/svg" style="width: var(--icon-width, 18px); height: var(--icon-height, 18px);" viewBox="0 0 18 18">
  <path fill="var(--icon-fill, #181D1E)" fill-rule="evenodd" d="M8.613 1.135a.625.625 0 0 1 .774 0L15.309 5.8A3.127 3.127 0 0 1 16.5 8.255v7.954a1.05 1.05 0 0 1-1.042 1.041h-4.166a1.05 1.05 0 0 1-1.042-1.041v-4.167a.199.199 0 0 0-.208-.208H7.958a.199.199 0 0 0-.208.208v4.167a1.05 1.05 0 0 1-1.042 1.041H2.542A1.05 1.05 0 0 1 1.5 16.21V8.255c0-.957.44-1.863 1.191-2.455l5.922-4.665Zm5.923 5.647L9 2.422l-5.535 4.36a1.873 1.873 0 0 0-.715 1.473V16H6.5v-3.958c0-.798.66-1.458 1.458-1.458h2.084c.798 0 1.458.66 1.458 1.458V16h3.75V8.255c0-.575-.263-1.117-.714-1.473Z" clip-rule="evenodd"/>
</svg>
