<svg xmlns="http://www.w3.org/2000/svg" fill="currentColor" viewBox="0 0 18 18">
  <path fill="#181D1E" fill-rule="evenodd" d="M10.412 1.912a1.412 1.412 0 1 1-2.824 0 1.412 1.412 0 0 1 2.824 0ZM3.706 4.029c-.424 0-.706.283-.706.706 0 .424.282.706.706.706h3.53v7.765c0 .423.282.706.705.706.424 0 .706-.283.706-.706V8.97c0-.212.141-.353.353-.353s.353.14.353.353v2.117c0 .424.282.706.706.706.423 0 .706-.282.706-.706V5.441h3.53c.423 0 .705-.282.705-.706 0-.423-.282-.706-.706-.706H3.706Zm1.2 10.589H13.8c.353 0 .706.282.706.705v1.412c0 .424-.283.706-.706.706-.424 0-.706-.282-.706-.706v-.706H5.612v.706c0 .424-.283.706-.706.706-.424 0-.706-.282-.706-.706v-1.412c0-.423.282-.705.706-.705Z" clip-rule="evenodd"/>
</svg>
