<svg xmlns="http://www.w3.org/2000/svg" fill="currentColor" viewBox="0 0 18 18">
  <path fill="#181D1E" fill-rule="evenodd" d="M4.2 3.8C4.2 2.813 5.013 2 6 2h6c.987 0 1.8.813 1.8 1.8v.6h.6A2.61 2.61 0 0 1 17 7v5.6c0 .987-.813 1.8-1.8 1.8h-1.4v1c0 .987-.813 1.8-1.8 1.8H6a1.81 1.81 0 0 1-1.8-1.8v-1H2.8A1.81 1.81 0 0 1 1 12.6V7a2.61 2.61 0 0 1 2.6-2.6h.6v-.6Zm7.8-.6H6a.59.59 0 0 0-.6.6v.6h7.2v-.6a.59.59 0 0 0-.6-.6ZM3.6 5.6h10.8c.78 0 1.4.62 1.4 1.4v5.6a.59.59 0 0 1-.6.6h-1.4v-1.4c0-.987-.813-1.8-1.8-1.8H6c-.987 0-1.8.813-1.8 1.8v1.4H2.8a.591.591 0 0 1-.6-.6V7c0-.78.62-1.4 1.4-1.4Zm8.4 5.6H6a.59.59 0 0 0-.6.6v3.6c0 .339.261.6.6.6h6a.59.59 0 0 0 .6-.6v-3.6a.59.59 0 0 0-.6-.6Z" clip-rule="evenodd"/>
</svg>
