<svg
    viewBox="0 0 18 18"
    xmlns="http://www.w3.org/2000/svg"
    style="width: var(--icon-width, 18px); height: var(--icon-height, 18px)">
<g fill="none" fill-rule="evenodd">
        <path d="M0 0h18v18H0z"/>
        <g fill="var(--icon-fill, #000)" fill-rule="nonzero">
            <path d="M9 .9c4.47 0 8.1 3.63 8.1 8.1s-3.63 8.1-8.1 8.1S.9 13.47.9 9 4.53.9 9 .9Zm0 .896A7.2 7.2 0 0 0 1.796 9 7.2 7.2 0 0 0 9 16.204 7.2 7.2 0 0 0 16.204 9 7.2 7.2 0 0 0 9 1.796Z"/>
            <path d="M9.619 11 10 5H8l.381 6h1.238Zm-.625 3c.573 0 1.006-.42 1.006-.994A.985.985 0 0 0 8.994 12C8.42 12 8 12.433 8 13.006c0 .574.42.994.994.994Z"/>
        </g>
    </g>
</svg>
