<svg xmlns="http://www.w3.org/2000/svg" fill="currentColor" viewBox="0 0 18 18">
  <path fill="#181D1E" fill-rule="evenodd" d="M12.333 3.083c0-1.143.94-2.083 2.084-2.083 1.143 0 2.083.94 2.083 2.083V14.75c0 1.143-.94 2.083-2.083 2.083a2.093 2.093 0 0 1-2.084-2.083V3.083Zm2.917 0a.824.824 0 0 0-.833-.833.824.824 0 0 0-.834.833V14.75c0 .468.366.833.834.833a.824.824 0 0 0 .833-.833V3.083ZM9 5.167c-1.143 0-2.083.94-2.083 2.083v7.5c0 1.143.94 2.083 2.083 2.083 1.143 0 2.083-.94 2.083-2.083v-7.5c0-1.143-.94-2.083-2.083-2.083Zm.833 2.083A.824.824 0 0 0 9 6.417a.845.845 0 0 0-.339.07c-.54.234-.494.763-.494.763v7.5a.84.84 0 0 0 .833.851c.837 0 .837-.748.833-.884V7.25Zm-6.25 2.083c-1.143 0-2.083.94-2.083 2.084v3.333c0 1.143.94 2.083 2.083 2.083 1.144 0 2.084-.94 2.084-2.083v-3.333c0-1.143-.94-2.084-2.084-2.084Zm.834 2.084a.817.817 0 0 0-.834-.825c-.467 0-.833.45-.833.825v3.333c0 .468.4.83.868.83a.804.804 0 0 0 .795-.796l.004-3.367Z" clip-rule="evenodd"/>
</svg>
