<svg xmlns="http://www.w3.org/2000/svg" fill="currentColor" viewBox="0 0 18 18">
  <path fill="#181D1E" fill-rule="evenodd" d="M.187 6.35C2.618 4.117 5.809 3 9 3c3.19 0 6.382 1.117 8.813 3.35a.53.53 0 0 1 .167.544.586.586 0 0 1-.435.4.645.645 0 0 1-.592-.154C12.556 3.1 5.444 3.1 1.047 7.14a.645.645 0 0 1-.592.154.586.586 0 0 1-.435-.4.53.53 0 0 1 .167-.544ZM2.745 8.7C4.469 7.115 6.735 6.323 9 6.323c2.265 0 4.53.792 6.255 2.377a.53.53 0 0 1 .168.544.586.586 0 0 1-.435.4.645.645 0 0 1-.593-.154c-2.984-2.742-7.806-2.742-10.79 0a.645.645 0 0 1-.592.154.586.586 0 0 1-.436-.4.53.53 0 0 1 .168-.544ZM9 9.646c-1.34 0-2.68.467-3.699 1.403a.527.527 0 0 0 0 .79.647.647 0 0 0 .861 0c1.573-1.444 4.103-1.444 5.676 0a.644.644 0 0 0 .592.154.586.586 0 0 0 .435-.4.53.53 0 0 0-.167-.544C11.679 10.113 10.339 9.646 9 9.646ZM7.454 14.51c0-.823.727-1.49 1.622-1.49.896 0 1.623.667 1.623 1.49S9.972 16 9.076 16c-.895 0-1.622-.667-1.622-1.49Z" clip-rule="evenodd"/>
</svg>
