<svg xmlns="http://www.w3.org/2000/svg" fill="currentColor" viewBox="0 0 18 18">
  <path fill="#181D1E" fill-rule="evenodd" d="M9 1C4.589 1 1 4.589 1 9s3.589 8 8 8 8-3.589 8-8-3.589-8-8-8Zm0 1.2c3.763 0 6.8 3.037 6.8 6.8s-3.037 6.8-6.8 6.8A6.79 6.79 0 0 1 2.2 9 6.79 6.79 0 0 1 9 2.2Zm3.138 8.995L9.943 9l2.195-2.195a.666.666 0 1 0-.943-.943L9 8.057 6.805 5.862a.666.666 0 1 0-.943.943L8.057 9l-2.195 2.195a.666.666 0 1 0 .943.943L9 9.943l2.195 2.195a.666.666 0 1 0 .943-.943Z" clip-rule="evenodd"/>
</svg>
