<svg
viewBox="0 0 18 18"
xmlns="http://www.w3.org/2000/svg"
style="width: var(--icon-width, 18px); height: var(--icon-height, 18px)">
<g fill="none" fill-rule="evenodd">
    <path d="M0 0h18v18H0z"/>
    <path d="M9 1C4.589 1 1 4.589 1 9s3.589 8 8 8 8-3.589 8-8-3.589-8-8-8Zm0 1.2A6.79 6.79 0 0 1 15.8 9 6.79 6.79 0 0 1 9 15.8 6.79 6.79 0 0 1 2.2 9 6.79 6.79 0 0 1 9 2.2ZM9 5a.8.8 0 1 0 0 1.6A.8.8 0 0 0 9 5Zm-.01 2.791a.6.6 0 0 0-.59.609v4.4a.6.6 0 1 0 1.2 0V8.4a.6.6 0 0 0-.61-.609Z"
          fill="var(--icon-fill, #181D1E)"
          fill-rule="nonzero" />
</g>
</svg>
