<svg
    viewBox="0 0 18 18"
    xmlns="http://www.w3.org/2000/svg"
    style="width: var(--icon-width, 18px); height: var(--icon-height, 18px)">
<g fill="none" fill-rule="evenodd">
        <path d="M0 0h18v18H0z"/>
        <path d="M9.1 1c4.47 0 8.1 3.63 8.1 8.1s-3.63 8.1-8.1 8.1S1 13.57 1 9.1 4.63 1 9.1 1Zm0 .896A7.2 7.2 0 0 0 1.896 9.1 7.2 7.2 0 0 0 9.1 16.304 7.2 7.2 0 0 0 16.304 9.1 7.2 7.2 0 0 0 9.1 1.896ZM9 4.13a1.043 1.043 0 1 0 0 2.087A1.043 1.043 0 0 0 9 4.13ZM7.609 7.61v.695h.695v4.522H7.61v.696H10.39v-.696h-.695V7.61H7.609Z"
              fill="var(--icon-fill, #181D1E)"
              fill-rule="nonzero"/>
    </g>
</svg>
