<svg xmlns="http://www.w3.org/2000/svg" fill="currentColor" viewBox="0 0 18 18">
  <path fill="#181D1E" fill-rule="evenodd" d="M4.328 1A1.837 1.837 0 0 0 2.5 2.828v12.594c0 1.002.826 1.828 1.828 1.828h9.344a1.837 1.837 0 0 0 1.828-1.828V6.89a.61.61 0 0 0-.178-.431l-.007-.007L10.04 1.18A.61.61 0 0 0 9.61 1H4.327Zm0 1.219H9v3.453C9 6.674 9.826 7.5 10.828 7.5h3.453v7.922a.6.6 0 0 1-.61.61H4.329a.6.6 0 0 1-.61-.61V2.828a.6.6 0 0 1 .61-.61ZM13.42 6.28l-3.201-3.2v2.59a.6.6 0 0 0 .61.61h2.59Z" clip-rule="evenodd"/>
</svg>
