<svg xmlns="http://www.w3.org/2000/svg" fill="currentColor" viewBox="0 0 18 18">
  <path fill="#181D1E" fill-rule="evenodd" d="M4.042 1.86A2.19 2.19 0 0 0 1.86 4.042v9.917a2.19 2.19 0 0 0 2.182 2.181h9.916a2.19 2.19 0 0 0 2.182-2.181V4.042a2.19 2.19 0 0 0-2.182-2.182H4.042Zm0 1.19h9.916c.555 0 .992.437.992.992v9.917a.983.983 0 0 1-.992.991H4.042a.983.983 0 0 1-.992-.991V4.042c0-.555.437-.992.992-.992Zm9.047 1.19a.596.596 0 0 1 .67.67V9.2a.595.595 0 1 1-1.19 0V6.272l-6.123 6.124a.595.595 0 1 1-.842-.841L11.73 5.43H8.802a.595.595 0 1 1 0-1.19h4.287Z" clip-rule="evenodd"/>
</svg>
