<svg xmlns="http://www.w3.org/2000/svg" fill="currentColor" viewBox="0 0 18 18">
  <path fill="#181D1E" fill-rule="evenodd" d="M2 4.528A2.537 2.537 0 0 1 4.528 2h8.944A2.537 2.537 0 0 1 16 4.528v8.944A2.537 2.537 0 0 1 13.472 16H4.528A2.537 2.537 0 0 1 2 13.472V4.528Zm11.472-1.361H4.528c-.759 0-1.361.602-1.361 1.36v.584h11.666v-.583c0-.759-.602-1.361-1.36-1.361ZM3.167 6.277h11.666v7.195c0 .759-.602 1.361-1.36 1.361H4.527a1.353 1.353 0 0 1-1.361-1.36V6.277Zm1.555 2.529a.972.972 0 1 1 1.945 0 .972.972 0 0 1-1.945 0ZM9 7.833a.972.972 0 1 0 0 1.945.972.972 0 0 0 0-1.945Zm2.333.973a.972.972 0 1 1 1.945 0 .972.972 0 0 1-1.945 0Zm-5.639 2.527a.972.972 0 1 0 0 1.945.972.972 0 0 0 0-1.945Zm2.334.973a.972.972 0 1 1 1.944 0 .972.972 0 0 1-1.944 0Z" clip-rule="evenodd"/>
</svg>
