<svg
    viewBox="0 0 24 24"
    xmlns="http://www.w3.org/2000/svg"
    style="width: var(--icon-width, 24px); height: var(--icon-height, 24px)">
    <g fill="none" fill-rule="evenodd">
        <path d="M0 0h24v24H0z"/>
        <path d="m18.323 6-.129.013a.99.99 0 0 0-.558.298l-8.337 8.572-2.583-2.656a.981.981 0 0 0-.971-.28 1.01 1.01 0 0 0-.713.732c-.09.356.014.735.273.99l3.287 3.38c.39.4 1.024.4 1.413 0l9.046-9.3c.292-.292.38-.739.22-1.125a1 1 0 0 0-.826-.62L18.323 6Z"
              fill="var(--icon-fill, #000)"
              fill-rule="nonzero"/>
        <g>
            <path d="M0 0h24v24H0z"/>
            <path d="m18.323 6-.129.013a.99.99 0 0 0-.558.298l-8.337 8.572-2.583-2.656a.981.981 0 0 0-.971-.28 1.01 1.01 0 0 0-.713.732c-.09.356.014.735.273.99l3.287 3.38c.39.4 1.024.4 1.413 0l9.046-9.3c.292-.292.38-.739.22-1.125a1 1 0 0 0-.826-.62L18.323 6Z"
                  fill="var(--icon-fill, #000)"
                  fill-rule="nonzero"/>
        </g>
    </g>
</svg>
