<svg xmlns="http://www.w3.org/2000/svg" fill="currentColor" viewBox="0 0 18 18">
  <path fill="#181D1E" fill-rule="evenodd" d="M8.699 1.007C5.328 1.16 2.745 3.98 2.745 7.244v2.95L1.64 12.36l-.006.012c-.445.921.275 2.026 1.32 2.026h3.544c0 1.338 1.128 2.436 2.502 2.436 1.374 0 2.502-1.097 2.502-2.436h3.543c1.045 0 1.766-1.105 1.321-2.026l-.006-.011-1.105-2.165V7.09c0-3.454-2.976-6.247-6.556-6.083Zm.058 1.216c2.886-.132 5.247 2.09 5.247 4.867v3.248a.59.59 0 0 0 .065.27l1.165 2.283c.075.156-.012.288-.189.288H2.955c-.178 0-.264-.132-.189-.288v-.001l1.165-2.281a.596.596 0 0 0 .065-.271V7.244c0-2.639 2.076-4.898 4.761-5.02ZM9 15.615c.698 0 1.251-.538 1.251-1.218H7.75c0 .68.553 1.218 1.251 1.218Z" clip-rule="evenodd"/>
</svg>
