<svg xmlns="http://www.w3.org/2000/svg" fill="currentColor" viewBox="0 0 18 18">
  <path fill="#181D1E" fill-rule="evenodd" d="M10.382.395c-1.52 0-2.448 1.422-2.448 1.422l-.01.013c-.544-.388-1.23-.646-2.082-.646a.592.592 0 1 0 0 1.184c1.193 0 1.718.481 2.088 1.208.25.493.355 1.103.413 1.704a1.153 1.153 0 0 0-.148-.05 1.677 1.677 0 0 1-.212-.07c-.52-.208-1.27-.423-2.437-.423-2.224 0-3.979 1.9-4.046 3.934a.61.61 0 0 0 0 .02v.083l.002.118v.194c.028 2.09.639 4.023 1.658 5.468 1.02 1.445 2.49 2.42 4.165 2.42h.105c.732 0 1.227-.306 1.57-.581.343.275.838.58 1.57.58h.104c1.677 0 3.147-.974 4.166-2.419 1.02-1.445 1.629-3.379 1.657-5.468l.001-.12v-.078l.001-.117v-.087a.585.585 0 0 0-.08-.29c-.242-1.902-1.857-3.657-3.965-3.657-1.168 0-1.916.215-2.437.423a2.892 2.892 0 0 1-.31.105 1.64 1.64 0 0 0-.173.056 6.463 6.463 0 0 0-.374-1.722c.35.193.744.348 1.222.348 1.518 0 2.447-1.422 2.447-1.422a.592.592 0 0 0 0-.708S11.9.395 10.382.395Zm0 1.184c.413 0 .82.315 1.124.592-.304.277-.71.592-1.124.592-.414 0-.82-.315-1.124-.592.303-.277.71-.592 1.124-.592ZM7.544 6.26c-.434-.173-.967-.34-1.998-.34-1.52 0-2.817 1.44-2.862 2.79v.021l.002.153v.187c.026 1.866.583 3.583 1.442 4.8.858 1.218 1.978 1.918 3.197 1.918h.105c.462 0 1.144-.586 1.144-.586a.592.592 0 0 1 .852 0s.681.586 1.144.586h.104c1.22 0 2.34-.7 3.199-1.917.857-1.216 1.414-2.932 1.44-4.796v-.013.013-.096l.001-.098v-.105c-.045-1.35-1.355-2.855-2.86-2.855-1.03 0-1.564.166-1.998.339l-.106.042c-.315.127-.643.26-1.03.322a.592.592 0 0 1-.64 0c-.387-.063-.715-.195-1.03-.321a31.89 31.89 0 0 0-.106-.043Z" clip-rule="evenodd"/>
</svg>
