<svg xmlns="http://www.w3.org/2000/svg" fill="currentColor" viewBox="0 0 18 18">
  <path fill="#181D1E" fill-rule="evenodd" d="M13.65 8.242a.555.555 0 0 1-.786 0l-.048-.048a.556.556 0 0 1 0-.786l2.149-2.15H1.556a.556.556 0 0 1 0-1.112h13.409l-2.149-2.149a.556.556 0 0 1 0-.786l.048-.048a.556.556 0 0 1 .786 0l3.147 3.146a.556.556 0 0 1 0 .787L13.65 8.242ZM4.31 9.754a.555.555 0 0 1 .786 0l.048.048a.556.556 0 0 1 0 .786l-2.15 2.15h13.41a.556.556 0 0 1 0 1.112H2.994l2.15 2.149a.556.556 0 0 1 0 .786l-.048.048a.556.556 0 0 1-.787 0l-3.146-3.146a.556.556 0 0 1 0-.787L4.31 9.754Z" clip-rule="evenodd"/>
</svg>
