<svg
  viewBox="0 0 18 18"
  fill="none"
  xmlns="http://www.w3.org/2000/svg"
  style="width: var(--icon-width, 18px); height: var(--icon-height, 18px)">
  <path
    fill-rule="evenodd"
    clip-rule="evenodd"
    d="M7.623 2h7.454C16.689 2 18 3.276 18 4.844v8.312C18 14.724 16.689 16 15.077 16H7.623c-.879 0-1.712-.328-2.344-.923l-4.456-4.19A2.567 2.567 0 0 1 0 9c0-.718.292-1.388.823-1.887l4.456-4.19A3.407 3.407 0 0 1 7.623 2Zm6.582 10.307a.643.643 0 0 0 0-.927L11.758 9l2.446-2.38a.643.643 0 0 0 0-.928.688.688 0 0 0-.954 0l-2.445 2.38-2.447-2.38a.688.688 0 0 0-.953 0 .643.643 0 0 0 0 .928L9.85 9l-2.447 2.38a.643.643 0 0 0 0 .928.682.682 0 0 0 .477.192.68.68 0 0 0 .477-.193l2.447-2.38 2.446 2.38a.682.682 0 0 0 .477.193.68.68 0 0 0 .477-.193Z"
    fill="var(--icon-fill, #181D1E)" />
</svg>
