<svg xmlns="http://www.w3.org/2000/svg" fill="currentColor" viewBox="0 0 18 18">
  <path fill="#181D1E" fill-rule="evenodd" d="M16.156 1.181a.613.613 0 0 1 .997.185.593.593 0 0 1-.136.663l-1.856 1.827a12.21 12.21 0 0 1 2.66 1.985.59.59 0 0 1 0 .848.617.617 0 0 1-.86 0 11.146 11.146 0 0 0-2.692-1.954l-1.798 1.77a8.799 8.799 0 0 1 2.793 1.854.6.6 0 0 1-.43 1.027.611.611 0 0 1-.431-.176 7.642 7.642 0 0 0-2.873-1.779L9.524 9.406a5.235 5.235 0 0 1 3.178 1.475c.24.236.24.615 0 .847a.617.617 0 0 1-.86 0A4.053 4.053 0 0 0 8.27 10.64l-6.273 6.176a.615.615 0 0 1-.593.165.604.604 0 0 1-.435-.43.593.593 0 0 1 .167-.583l15.02-14.787ZM.18 5.841a12.525 12.525 0 0 1 8.45-3.588 12.7 12.7 0 0 1 4.14.567l-.986.971c-3.723-.93-7.839.036-10.745 2.898a.611.611 0 0 1-.86 0 .59.59 0 0 1 0-.848ZM9 5.81a8.857 8.857 0 0 0-6.259 2.55.594.594 0 0 0 0 .851c.236.232.62.232.86 0a7.61 7.61 0 0 1 4.9-2.185l1.206-1.188A8.344 8.344 0 0 0 9 5.81Zm-1.546 8.785c0-.883.727-1.6 1.623-1.6.897 0 1.624.717 1.624 1.6 0 .882-.727 1.598-1.624 1.598a1.611 1.611 0 0 1-1.623-1.598Z" clip-rule="evenodd"/>
</svg>
