<svg xmlns="http://www.w3.org/2000/svg" fill="currentColor" viewBox="0 0 18 18">
  <path fill="#181D1E" fill-rule="evenodd" d="M5 5c0-2.202 1.798-4 4-4s4 1.798 4 4-1.798 4-4 4-4-1.798-4-4Zm6.8 0A2.79 2.79 0 0 0 9 2.2 2.79 2.79 0 0 0 6.2 5 2.79 2.79 0 0 0 9 7.8 2.79 2.79 0 0 0 11.8 5Zm-7.61 5.6a1.6 1.6 0 0 0-1.59 1.591v.609c0 1.442.91 2.557 2.122 3.225C5.933 16.693 7.467 17 9 17c1.532 0 3.066-.307 4.277-.975 1.032-.57 1.81-1.48 2.027-2.625h.096v-1.209a1.6 1.6 0 0 0-1.592-1.591H4.191Zm10.01 1.591a.383.383 0 0 0-.393-.391H4.191a.383.383 0 0 0-.391.391v.609c0 .958.538 1.643 1.502 2.175.964.532 2.33.825 3.698.825 1.367 0 2.733-.293 3.697-.825S14.2 13.758 14.2 12.8v-.6h.001v-.009Z" clip-rule="evenodd"/>
</svg>
