<svg xmlns="http://www.w3.org/2000/svg" fill="currentColor" viewBox="0 0 18 18">
  <path fill="#181D1E" fill-rule="evenodd" d="M9 1C7.212 1 5.75 2.44 5.75 4.2v1.6H4.328C3.326 5.8 2.5 6.613 2.5 7.6v7.6c0 .987.826 1.8 1.828 1.8h9.344c1.002 0 1.828-.813 1.828-1.8V7.6c0-.987-.826-1.8-1.828-1.8H6.969V4.2c0-1.112.902-2 2.031-2a2.01 2.01 0 0 1 2.023 1.845.6.6 0 0 0 .343.496.618.618 0 0 0 .608-.045.597.597 0 0 0 .264-.541C12.11 2.305 10.704 1 9 1ZM4.328 7H6.26c.066.01.133.01.198 0h7.215c.344 0 .61.261.61.6v7.6c0 .339-.266.6-.61.6H4.328a.596.596 0 0 1-.61-.6V7.6c0-.339.266-.6.61-.6Zm3.453 4.4c0-.663.546-1.2 1.219-1.2a1.21 1.21 0 0 1 1.219 1.2c0 .663-.546 1.2-1.219 1.2a1.21 1.21 0 0 1-1.219-1.2Z" clip-rule="evenodd"/>
</svg>
