<svg xmlns="http://www.w3.org/2000/svg" fill="currentColor" viewBox="0 0 18 18">
  <path fill="#181D1E" fill-rule="evenodd" d="M7.62 2c-.874 0-1.716.33-2.345.922L.818 7.112a2.586 2.586 0 0 0 0 3.775l4.457 4.19A3.43 3.43 0 0 0 7.62 16h7.456C16.683 16 18 14.719 18 13.156V4.844C18 3.28 16.683 2 15.076 2H7.62Zm0 1.313h7.456c.877 0 1.575.678 1.575 1.53v8.313c0 .853-.698 1.531-1.575 1.531H7.621c-.526 0-1.03-.2-1.407-.554l-4.458-4.19a1.278 1.278 0 0 1 0-1.887l4.458-4.19a2.052 2.052 0 0 1 1.406-.554Zm5.63 2.378a.684.684 0 0 1 .47-.201.676.676 0 0 1 .64.404.643.643 0 0 1-.156.725L11.757 9l2.447 2.38a.645.645 0 0 1 .185.639.666.666 0 0 1-.482.47.687.687 0 0 1-.658-.181l-2.446-2.38-2.447 2.38a.687.687 0 0 1-.657.18.666.666 0 0 1-.483-.47.644.644 0 0 1 .186-.638L9.848 9 7.402 6.62a.643.643 0 0 1-.156-.717.684.684 0 0 1 1.11-.21l2.447 2.38 2.446-2.38Z" clip-rule="evenodd"/>
</svg>
