<svg xmlns="http://www.w3.org/2000/svg" fill="currentColor" viewBox="0 0 18 18">
  <path fill="#181D1E" fill-rule="evenodd" d="M2 8.034C2 4.157 5.141 1 9 1c3.858 0 7 3.157 7 7.034 0 1.74-.635 3.337-1.68 4.564l-.002.002-.002.003s-2.831 3.274-4.04 4.432c-.71.68-1.843.68-2.553 0-1.06-1.016-4.038-4.43-4.038-4.43l-.003-.004-.003-.003A7.03 7.03 0 0 1 2 8.034Zm12.765 0C14.765 4.828 12.19 2.24 9 2.24c-3.19 0-5.765 2.587-5.765 5.793 0 1.437.521 2.743 1.383 3.757.02.024 3.078 3.503 3.957 4.346a.6.6 0 0 0 .849 0c1.053-1.009 3.944-4.33 3.957-4.345a5.768 5.768 0 0 0 1.384-3.758Z" clip-rule="evenodd"/>
  <path fill="#ED6A12" d="M13 6.246c-.685-.505-1.606-.878-2.656-1.053L9 6.54 7.656 5.193c-1.05.175-1.971.548-2.656 1.053l2.146 2.147L5 10.541c.685.505 1.606.878 2.656 1.052L9 10.248l1.345 1.345c1.05-.174 1.97-.547 2.655-1.052l-2.146-2.148L13 6.246Z"/>
</svg>
