<svg
    viewBox="0 0 24 24"
    xmlns="http://www.w3.org/2000/svg"
    style="width: var(--icon-width, 24px); height: var(--icon-height, 24px)">
    <g fill="none" fill-rule="evenodd">
        <path d="M0 0h24v24H0z"/>
        <g fill="var(--icon-fill, #000)" fill-rule="nonzero">
            <path d="M12 3.9c4.47 0 8.1 3.63 8.1 8.1s-3.63 8.1-8.1 8.1-8.1-3.63-8.1-8.1S7.53 3.9 12 3.9Zm0 .896A7.2 7.2 0 0 0 4.796 12 7.2 7.2 0 0 0 12 19.204 7.2 7.2 0 0 0 19.204 12 7.2 7.2 0 0 0 12 4.796Z"/>
            <path d="M12.619 14 13 8h-2l.381 6h1.238Zm-.625 3c.573 0 1.006-.42 1.006-.994A.985.985 0 0 0 11.994 15c-.574 0-.994.433-.994 1.006 0 .574.42.994.994.994Z"/>
        </g>
    </g>
</svg>
