<svg xmlns="http://www.w3.org/2000/svg" fill="currentColor" viewBox="0 0 18 18">
  <g clip-path="url(#a)">
    <path fill="#181D1E" fill-rule="evenodd" d="M9 3C7.68 3 6.6 4.08 6.6 5.4v.2c0 .22.11.42.3.53.19.11.42.11.6 0 .19-.11.3-.31.3-.53v-.2c0-.67.53-1.2 1.2-1.2.67 0 1.2.53 1.2 1.2 0 .87-.21 1.03-.58 1.32a.55.55 0 0 0-.09.07c-.03.02-.06.05-.09.07-.2.15-.44.34-.64.62-.24.33-.4.78-.4 1.32 0 .22.11.42.3.53.19.11.42.11.6 0 .19-.11.3-.31.3-.53 0-.34.07-.48.16-.61.1-.13.26-.26.5-.45.47-.38 1.13-1.08 1.13-2.34 0-1.26-1.08-2.4-2.4-2.4H9Z" clip-rule="evenodd"/>
    <path fill="#181D1E" d="M9 12.2a.8.8 0 1 0 0-1.6.8.8 0 0 0 0 1.6ZM6.75 7.4a3.1 3.1 0 0 1-.65-.72C4.88 7.07 3.73 7.7 2.76 8.6c-.16.14-.22.35-.17.54.06.2.22.35.44.4.21.05.44 0 .59-.15C4.59 8.5 5.76 7.9 7 7.59c-.07-.06-.14-.12-.23-.19h-.02Zm-.12-4.29C4.27 3.53 2.01 4.57.19 6.25c-.16.14-.22.35-.17.54.06.2.22.35.44.4.21.05.44 0 .59-.15C2.4 5.8 4 4.95 5.7 4.47c.14-.56.48-1.04.93-1.36Zm.7 6.71c-.74.23-1.44.59-2.03 1.13-.24.22-.24.57 0 .79.24.22.62.22.86 0 .35-.32.75-.56 1.17-.73V9.82Zm4.77-3.08c-.18.42-.43.73-.67.96 1.08.33 2.1.89 2.97 1.68.15.15.38.2.59.15.21-.05.38-.2.44-.4s0-.4-.17-.54c-.92-.85-2.01-1.46-3.16-1.86v.01Zm-3.02 6.18c-.9 0-1.62.67-1.62 1.49s.73 1.49 1.62 1.49c.89 0 1.62-.67 1.62-1.49s-.73-1.49-1.62-1.49Zm8.73-6.67c-1.85-1.7-4.14-2.75-6.54-3.16.46.32.79.8.94 1.35 1.73.47 3.37 1.34 4.74 2.6.15.15.38.2.59.15.21-.05.38-.2.44-.4s0-.4-.17-.54Zm-7.22 3.54v1.17c.45.18.88.43 1.25.78.15.15.38.2.59.15.21-.05.38-.2.44-.4s0-.4-.17-.54c-.61-.56-1.34-.93-2.11-1.16Z"/>
  </g>
  <defs>
    <clipPath id="a">
      <path fill="#fff" d="M0 3h18v12.9H0z"/>
    </clipPath>
  </defs>
</svg>
