<svg xmlns="http://www.w3.org/2000/svg" fill="currentColor" viewBox="0 0 18 18">
  <path fill="#181D1E" fill-rule="evenodd" d="M5.75 4.2C5.75 2.44 7.212 1 9 1s3.25 1.44 3.25 3.2v1.6h1.422c1.002 0 1.828.813 1.828 1.8v7.6c0 .987-.826 1.8-1.828 1.8H4.328C3.326 17 2.5 16.187 2.5 15.2V7.6c0-.987.826-1.8 1.828-1.8H5.75V4.2Zm5.281 0c0-1.112-.902-2-2.031-2-1.13 0-2.031.888-2.031 2v1.6h4.062V4.2Zm2.64 2.8c.345 0 .61.261.61.6v7.6c0 .339-.265.6-.61.6H4.329a.596.596 0 0 1-.61-.6V7.6c0-.339.266-.6.61-.6h9.344Zm-5.89 4.4c0-.663.546-1.2 1.219-1.2a1.21 1.21 0 0 1 1.219 1.2c0 .663-.546 1.2-1.219 1.2a1.21 1.21 0 0 1-1.219-1.2Z" clip-rule="evenodd"/>
</svg>
