<svg
    viewBox="0 0 18 18"
    xmlns="http://www.w3.org/2000/svg"
    style="width: var(--icon-width, 18px); height: var(--icon-height, 18px)">
    <g>
        <path fill-opacity="0" d="M0 0h18v18H0z" />
        <path d="M9 17c4.411 0 8-3.589 8-8s-3.589-8-8-8-8 3.589-8 8 3.589 8 8 8Zm0-1.2A6.79 6.79 0 0 1 2.2 9 6.79 6.79 0 0 1 9 2.2 6.79 6.79 0 0 1 15.8 9 6.79 6.79 0 0 1 9 15.8ZM9 13a.8.8 0 1 0 0-1.6.8.8 0 0 0 0 1.6Zm.01-2.791A.6.6 0 0 0 9.6 9.6V5.2a.6.6 0 1 0-1.2 0v4.4a.6.6 0 0 0 .61.609Z"
              fill="var(--icon-fill, #181D1E)" />
    </g>
</svg>
