<svg xmlns="http://www.w3.org/2000/svg" style="width: var(--icon-width, 18px); height: var(--icon-height, 18px);" viewBox="0 0 18 18">
  <path fill="var(--icon-fill, #181D1E)" fill-rule="evenodd" d="M11.526 1a5.483 5.483 0 0 0-5.473 5.474c0 .345.066.669.133.992l.015.072-5.016 5.015A.631.631 0 0 0 1 13v3.368c0 .35.283.632.632.632H5a.632.632 0 0 0 .632-.632v-1.052h1.473a.632.632 0 0 0 .632-.632v-1.473H9.21a.632.632 0 0 0 .631-.632v-.929c.535.175 1.093.297 1.684.297A5.483 5.483 0 0 0 17 6.474 5.483 5.483 0 0 0 11.526 1Zm0 1.263a4.201 4.201 0 0 1 4.21 4.21 4.201 4.201 0 0 1-4.21 4.211 4.181 4.181 0 0 1-2.013-.511.632.632 0 0 0-.934.554v1.22H7.105a.632.632 0 0 0-.631.632v1.474H5a.632.632 0 0 0-.632.631v1.053H2.263V13.26l5.048-5.047a.632.632 0 0 0 .162-.616 4.201 4.201 0 0 1 4.053-5.335Zm-.42 3.369a1.263 1.263 0 1 1 2.526 0 1.263 1.263 0 0 1-2.527 0Z" clip-rule="evenodd"/>
</svg>
