<svg xmlns="http://www.w3.org/2000/svg" fill="currentColor" viewBox="0 0 18 18">
  <path fill="#181D1E" fill-rule="evenodd" d="M3.6 3C2.171 3 1 4.139 1 5.528v7.389c0 1.389 1.171 2.527 2.6 2.527h10.8c1.429 0 2.6-1.138 2.6-2.527v-7.39C17 4.14 15.829 3 14.4 3H3.6Zm0 1.167h10.8c.78 0 1.4.602 1.4 1.36v.43L9 9.532 2.2 5.958v-.43c0-.759.62-1.361 1.4-1.361Zm5.115 6.54L2.2 7.285v5.633c0 .758.62 1.36 1.4 1.36h10.8c.78 0 1.4-.602 1.4-1.36V7.284l-6.515 3.424a.615.615 0 0 1-.57 0Z" clip-rule="evenodd"/>
</svg>
