<svg xmlns="http://www.w3.org/2000/svg" style="width: var(--icon-width, 18px); height: var(--icon-height, 18px);" viewBox="0 0 18 18">
  <path fill="var(--icon-fill, #181D1E)" fill-rule="evenodd" d="M1 9c0-4.411 3.589-8 8-8s8 3.589 8 8-3.589 8-8 8-8-3.589-8-8Zm14.8 0A6.79 6.79 0 0 0 9 2.2 6.79 6.79 0 0 0 2.2 9 6.79 6.79 0 0 0 9 15.8 6.79 6.79 0 0 0 15.8 9ZM9 4.2c-.75 0-1.388.303-1.798.764A2.452 2.452 0 0 0 6.6 6.6c0 .583.192 1.175.602 1.636C7.612 8.697 8.25 9 9 9s1.389-.303 1.798-.764c.41-.461.602-1.053.602-1.636s-.192-1.175-.602-1.636C10.388 4.503 9.75 4.2 9 4.2Zm.902 1.56C9.712 5.548 9.45 5.4 9 5.4s-.712.147-.902.36c-.19.215-.298.523-.298.84 0 .317.108.625.298.84.19.213.452.36.902.36s.712-.147.902-.36c.19-.215.298-.523.298-.84 0-.317-.108-.625-.298-.84ZM6.304 9.8C5.59 9.8 5 10.39 5 11.104v.433c0 .795.503 1.486 1.219 1.943.716.456 1.673.72 2.781.72s2.065-.264 2.781-.72c.716-.457 1.219-1.148 1.219-1.943v-.433c0-.713-.59-1.304-1.304-1.304H6.304Zm5.496 1.304c0-.064-.04-.104-.104-.104H6.304c-.064 0-.104.04-.104.104v.433c0 .284.186.626.664.931.478.305 1.222.533 2.136.533.914 0 1.658-.228 2.136-.533.478-.305.664-.646.664-.931v-.433Z" clip-rule="evenodd"/>
</svg>
