<svg xmlns="http://www.w3.org/2000/svg" style="width: var(--icon-width, 18px); height: var(--icon-height, 18px);" viewBox="0 0 18 18">
  <path fill="var(--icon-fill, #181D1E)" fill-rule="evenodd" d="M6.447 3.108a.628.628 0 0 1 .706 0l4.043 2.759 4.052-2.76a.634.634 0 0 1 .624-.045.56.56 0 0 1 .328.5v7.876c0 .18-.092.349-.248.454l-4.404 3a.633.633 0 0 1-.706 0L6.8 12.133l-4.047 2.76a.634.634 0 0 1-.625.046.56.56 0 0 1-.328-.502V6.564c0-.18.092-.35.247-.455l4.4-3ZM15 11.15V4.666l-3.2 2.18v6.484l3.2-2.179ZM6.2 4.667v6.484L3 13.333V6.849l3.2-2.182Zm4.4 2.185L7.4 4.668v6.483l3.2 2.184V6.852Z" clip-rule="evenodd"/>
</svg>
