<svg xmlns="http://www.w3.org/2000/svg" style="width: var(--icon-width, 18px); height: var(--icon-height, 18px);" viewBox="0 0 18 18">
  <path fill="var(--icon-fill, #181D1E)" fill-rule="evenodd" d="M9 1C5.141 1 2 4.157 2 8.034a7.03 7.03 0 0 0 1.68 4.564l.002.003.003.003s2.978 3.415 4.038 4.431c.71.68 1.843.68 2.553 0 1.209-1.158 4.04-4.432 4.04-4.432l.002-.003.002-.002A7.026 7.026 0 0 0 16 8.034C16 4.157 12.858 1 9 1Zm0 1.241c3.19 0 5.765 2.587 5.765 5.793a5.768 5.768 0 0 1-1.384 3.757c-.014.016-2.904 3.337-3.957 4.346a.6.6 0 0 1-.849 0c-.88-.843-3.936-4.322-3.956-4.345l-.001-.001a5.771 5.771 0 0 1-1.383-3.757C3.235 4.828 5.81 2.24 9 2.24Zm1.344 2.952c1.05.175 1.971.548 2.656 1.053l-2.146 2.147L13 10.541c-.684.505-1.606.878-2.655 1.052L9 10.248l-1.344 1.345c-1.05-.174-1.971-.547-2.656-1.052l2.146-2.148L5 6.246c.685-.505 1.606-.878 2.656-1.053L9 6.54l1.344-1.346Z" clip-rule="evenodd"/>
</svg>
