<svg xmlns="http://www.w3.org/2000/svg" fill="currentColor" viewBox="0 0 18 18">
  <path fill="#181D1E" fill-rule="evenodd" d="M9.665 2a1.086 1.086 0 0 0-.732.273L5.336 5.471h-2.58A1.763 1.763 0 0 0 1 7.226v2.73c0 .963.793 1.755 1.755 1.755h2.581l3.597 3.197c.336.299.812.343 1.173.181a1.11 1.11 0 0 0 .645-.996V3.089c0-.449-.284-.834-.645-.996A1.085 1.085 0 0 0 9.666 2Zm-.084 1.263V13.92l-3.634-3.23a.585.585 0 0 0-.388-.148H2.755a.576.576 0 0 1-.585-.585v-2.73a.575.575 0 0 1 .585-.585H5.56a.585.585 0 0 0 .388-.148l3.634-3.23Zm6.412 3.16a.585.585 0 1 1 .827.826l-1.341 1.342 1.341 1.341a.585.585 0 1 1-.827.828L14.65 9.418l-1.34 1.342a.585.585 0 1 1-.828-.828l1.342-1.341-1.342-1.342a.585.585 0 1 1 .828-.827l1.341 1.342 1.342-1.342Z" clip-rule="evenodd"/>
</svg>
