<svg xmlns="http://www.w3.org/2000/svg" style="width: var(--icon-width, 18px); height: var(--icon-height, 18px);" viewBox="0 0 18 18">
  <path fill="var(--icon-fill, #181D1E)" d="m9.391 1-5.81 1.272L3 2.406v13.523h.581c0 .067 5.81 1.071 5.81 1.071h1.525V1H9.391Zm2.978 1.339v1.339h2.178v10.711H12.37v1.339H16V2.338h-3.631Zm-2.905 0v13.389l-5.084-.87V3.477l5.084-1.071v-.067ZM8.01 8.364c-.363 0-.726.469-.726 1.004 0 .536.363 1.004.726 1.004s.726-.468.726-1.004c0-.535-.29-1.004-.726-1.004Z"/>
</svg>
