<svg xmlns="http://www.w3.org/2000/svg" style="width: var(--icon-width, 18px); height: var(--icon-height, 18px);" viewBox="0 0 18 18">
  <path fill="var(--icon-fill, #181D1E)" fill-rule="evenodd" d="M6.055.717a2.2 2.2 0 0 1 2.633 1.19l.723 1.591c.388.852.18 1.864-.507 2.497l-1.2 1.106-.002.001a.189.189 0 0 0-.061.118l-.004.028c-.01.071-.016.122.045.357.068.263.238.709.637 1.39v.001c.371.635.719 1.079.97 1.298.14.123.302.216.37.196l1.61-.486a2.207 2.207 0 0 1 2.418.806l1.029 1.408a2.184 2.184 0 0 1-.272 2.869l-.712.665a3.02 3.02 0 0 1-2.862.703c-2.24-.618-4.224-2.51-5.965-5.489-1.743-2.982-2.413-5.63-1.828-7.87a2.994 2.994 0 0 1 2.041-2.1l.937-.28Zm1.553 1.689a1.019 1.019 0 0 0-1.217-.543l-.936.28a1.81 1.81 0 0 0-1.23 1.259c-.469 1.789.049 4.129 1.703 6.958 1.652 2.825 3.444 4.442 5.255 4.941a1.86 1.86 0 0 0 1.741-.424l.713-.667a.966.966 0 0 0 .123-1.284l-1.029-1.407a1.021 1.021 0 0 0-1.12-.37l-1.617.488H9.99c-.739.218-1.291-.272-1.458-.42a1.882 1.882 0 0 0-.022-.02c-.42-.366-.805-.896-1.214-1.595h-.001c-.438-.75-.656-1.288-.762-1.695a2.392 2.392 0 0 1-.072-.82v-.001a1.39 1.39 0 0 1 .44-.867l1.201-1.105a.96.96 0 0 0 .23-1.118l-.725-1.59Z" clip-rule="evenodd"/>
</svg>
