<svg xmlns="http://www.w3.org/2000/svg" style="width: var(--icon-width, 18px); height: var(--icon-height, 18px);" viewBox="0 0 18 18">
  <g clip-path="url(#a)">
    <path fill="var(--icon-fill, #181D1E)" fill-rule="evenodd" d="M9.27 1C6.92 1 5 2.878 5 5.176v.352c0 .372.2.724.53.92.33.185.74.185 1.08 0 .33-.186.53-.538.53-.92v-.352c0-1.164.94-2.083 2.13-2.083s2.13.92 2.13 2.083c0 1.516-.37 1.8-1.04 2.298-.05.04-.1.079-.16.118-.05.039-.1.078-.16.117-.35.264-.78.587-1.14 1.076-.43.567-.71 1.36-.71 2.298 0 .372.2.724.53.92.33.185.74.185 1.08 0 .33-.186.53-.539.53-.92 0-.596.12-.831.29-1.066.17-.235.47-.46.88-.772h.02c.84-.656 2.01-1.868 2.01-4.069C13.53 2.976 11.61 1 9.27 1Z" clip-rule="evenodd"/>
    <path fill="var(--icon-fill, #181D1E)" d="M9.27 16.99c.784 0 1.42-.621 1.42-1.388 0-.767-.636-1.39-1.42-1.39-.784 0-1.42.623-1.42 1.39 0 .767.636 1.388 1.42 1.388Z"/>
  </g>
  <defs>
    <clipPath id="a">
      <path fill="#fff" d="M5 1h8.53v16H5z"/>
    </clipPath>
  </defs>
</svg>
