<svg xmlns="http://www.w3.org/2000/svg" style="width: var(--icon-width, 18px); height: var(--icon-height, 18px);" viewBox="0 0 18 18">
  <path fill="var(--icon-fill, #181D1E)" fill-rule="evenodd" d="M2.6 2.8c0-.987.813-1.8 1.8-1.8h9.2c.987 0 1.8.813 1.8 1.8v12.4c0 .987-.813 1.8-1.8 1.8H4.4a1.81 1.81 0 0 1-1.8-1.8V2.8Zm11-.6H4.4a.59.59 0 0 0-.6.6v12.4c0 .339.261.6.6.6h9.2a.59.59 0 0 0 .6-.6V2.8a.59.59 0 0 0-.6-.6Zm-7.2 2a.6.6 0 1 0 0 1.2h2a.6.6 0 1 0 0-1.2h-2Zm-.527 3.898A.6.6 0 0 1 6.4 7.8h5.2a.6.6 0 1 1 0 1.2H6.4a.6.6 0 0 1-.527-.902ZM6.4 10.2a.6.6 0 1 0 0 1.2h5.2a.6.6 0 1 0 0-1.2H6.4Zm-.527 2.698A.6.6 0 0 1 6.4 12.6H10a.6.6 0 1 1 0 1.2H6.4a.6.6 0 0 1-.527-.902Z" clip-rule="evenodd"/>
</svg>
