<svg xmlns="http://www.w3.org/2000/svg" style="width: var(--icon-width, 18px); height: var(--icon-height, 18px);" viewBox="0 0 18 18">
  <path fill="var(--icon-fill, #181D1E)" fill-rule="evenodd" d="M8.657 1.135a.507.507 0 0 1 .686 0s2.568 2.313 5.644 2.313a.52.52 0 0 1 .513.525V8.26c0 2.335-1.057 6.178-6.3 8.436a.503.503 0 0 1-.4 0c-5.243-2.258-6.3-6.1-6.3-8.436V3.973c0-.29.23-.525.513-.525 3.076 0 5.644-2.313 5.644-2.313Zm5.817 3.319C11.774 4.265 9.706 2.779 9 2.199c-.706.58-2.775 2.066-5.474 2.255V8.26c0 2.008.755 5.248 5.474 7.367 4.719-2.12 5.474-5.359 5.474-7.367V4.454ZM9 4.497c-1.128 0-2.053.946-2.053 2.098v.798a1.577 1.577 0 0 0-1.026 1.475v1.749c0 .863.695 1.574 1.54 1.574h3.079c.844 0 1.539-.711 1.539-1.574V8.868c0-.678-.432-1.257-1.026-1.475v-.798c0-1.152-.926-2.098-2.053-2.098Zm1.026 2.098A1.03 1.03 0 0 0 9 5.546a1.03 1.03 0 0 0-1.026 1.05v.699h2.052v-.7Zm.514 1.749a.51.51 0 0 1 .513.524v1.749a.511.511 0 0 1-.514.524H7.462a.511.511 0 0 1-.514-.524V8.868c0-.296.224-.524.514-.524h3.079ZM8.316 9.743c0-.387.306-.7.684-.7.378 0 .684.313.684.7 0 .386-.306.7-.684.7a.692.692 0 0 1-.684-.7Z" clip-rule="evenodd"/>
</svg>
