<svg xmlns="http://www.w3.org/2000/svg" style="width: var(--icon-width, 18px); height: var(--icon-height, 18px);" viewBox="0 0 18 18">
  <path fill="var(--icon-fill, #181D1E)" fill-rule="evenodd" d="M1.009 3.444A2.453 2.453 0 0 1 3.45 1h11.098a2.453 2.453 0 0 1 2.442 2.444v2.56a.67.67 0 0 1 0 .216v8.336A2.453 2.453 0 0 1 14.55 17H3.451a2.453 2.453 0 0 1-2.442-2.444V6.218a.667.667 0 0 1 0-.216V3.444Zm13.54-1.11H3.451a1.1 1.1 0 0 0-1.11 1.11v2h2.752l-.082-.572a.667.667 0 0 1 .326-.671S6.987 3.222 9 3.222s3.663.979 3.663.979a.667.667 0 0 1 .326.671l-.082.572h2.752v-2a1.1 1.1 0 0 0-1.11-1.11ZM9 4.555c1.23 0 2.16.411 2.6.625l-.292 2.041H9.754l.129-1.028a.667.667 0 1 0-1.322-.165l-.149 1.193h-1.72L6.4 5.181A5.908 5.908 0 0 1 9 4.556ZM5.284 6.778H2.34v7.778a1.1 1.1 0 0 0 1.11 1.11h11.098a1.1 1.1 0 0 0 1.11-1.11V6.778h-2.943l-.171 1.206a.666.666 0 0 1-.66.572H9.108a.665.665 0 0 1-.214 0h-2.78a.666.666 0 0 1-.659-.572l-.171-1.206Z" clip-rule="evenodd"/>
</svg>
