<svg xmlns="http://www.w3.org/2000/svg" fill="currentColor" viewBox="0 0 18 18">
  <path fill="#181D1E" fill-rule="evenodd" d="M1 7.44C1 3.892 3.893 1 7.44 1c3.545 0 6.439 2.893 6.439 6.44a6.393 6.393 0 0 1-1.31 3.872l4.158 4.159a.888.888 0 1 1-1.256 1.256l-4.159-4.158a6.393 6.393 0 0 1-3.873 1.31C3.893 13.879 1 10.985 1 7.439Zm11.44 0c0-2.773-2.228-5-5-5-2.773 0-5 2.227-5 5 0 2.772 2.227 5 5 5a4.98 4.98 0 0 0 3.428-1.36.952.952 0 0 1 .213-.213 4.98 4.98 0 0 0 1.358-3.428Z" clip-rule="evenodd"/>
</svg>
