<svg xmlns="http://www.w3.org/2000/svg" fill="currentColor" viewBox="0 0 18 18">
  <path fill="#181D1E" fill-rule="evenodd" d="M7.282 1.215A7.85 7.85 0 0 1 9.082 1c.624 0 1.226.08 1.8.216a.598.598 0 0 1 .455.518l.126 1.161a1.2 1.2 0 0 0 .587.909c.327.191.725.213 1.071.06l1.056-.47a.59.59 0 0 1 .672.138 8.008 8.008 0 0 1 1.807 3.15.604.604 0 0 1-.217.657l-.936.693a1.203 1.203 0 0 0-.485.968c0 .383.18.741.485.968l.936.693c.203.15.29.414.217.658a8.008 8.008 0 0 1-1.807 3.149.59.59 0 0 1-.672.138l-1.056-.47a1.175 1.175 0 0 0-1.071.06 1.2 1.2 0 0 0-.587.909l-.126 1.16a.598.598 0 0 1-.455.52 7.853 7.853 0 0 1-1.8.215c-.624 0-1.226-.08-1.8-.216a.598.598 0 0 1-.455-.518L6.7 15.105a1.2 1.2 0 0 0-.587-.909 1.176 1.176 0 0 0-1.072-.06l-1.055.47a.59.59 0 0 1-.673-.138 8.004 8.004 0 0 1-1.807-3.15.604.604 0 0 1 .218-.657l.936-.693a1.206 1.206 0 0 0 0-1.936l-.936-.694a.604.604 0 0 1-.218-.658 8.005 8.005 0 0 1 1.807-3.148.59.59 0 0 1 .673-.139l1.055.47c.347.153.745.132 1.072-.06a1.2 1.2 0 0 0 .587-.908l.126-1.16a.598.598 0 0 1 .455-.52Zm2.867 1.11c-.351-.062-.702-.125-1.067-.125-.363 0-.713.062-1.063.125l-.064.01-.074.69a2.404 2.404 0 0 1-1.173 1.818 2.353 2.353 0 0 1-2.144.118l-.627-.279a6.758 6.758 0 0 0-1.13 1.97l.556.412c.61.452.97 1.172.97 1.936a2.41 2.41 0 0 1-.97 1.935l-.556.413a6.757 6.757 0 0 0 1.13 1.97l.627-.28a2.353 2.353 0 0 1 2.144.119 2.405 2.405 0 0 1 1.173 1.817l.074.69.06.01c.35.063.702.126 1.067.126.363 0 .713-.062 1.063-.125l.064-.01.074-.69c.082-.76.52-1.436 1.173-1.818a2.353 2.353 0 0 1 2.144-.119l.627.28a6.764 6.764 0 0 0 1.13-1.97l-.556-.413A2.41 2.41 0 0 1 13.83 9c0-.764.36-1.483.97-1.935l.556-.413a6.762 6.762 0 0 0-1.13-1.97l-.627.28a2.353 2.353 0 0 1-2.144-.119 2.404 2.404 0 0 1-1.173-1.817l-.074-.69-.06-.01ZM9.082 5.8C7.34 5.8 5.916 7.24 5.916 9c0 1.76 1.425 3.2 3.166 3.2 1.741 0 3.166-1.44 3.166-3.2 0-1.76-1.425-3.2-3.166-3.2ZM11.06 9c0-1.112-.88-2-1.98-2a1.98 1.98 0 0 0-1.978 2c0 1.112.88 2 1.979 2a1.98 1.98 0 0 0 1.979-2Z" clip-rule="evenodd"/>
</svg>
