<svg xmlns="http://www.w3.org/2000/svg" style="width: var(--icon-width, 9px); height: var(--icon-height, 14px);" viewBox="0 0 9 14">
  <g fill="var(--icon-fill-1, #181D1E)">
    <path d="M1.05 9.94a.781.781 0 011.023-1.178l.064.056 2.675 2.596 2.675-2.596a.781.781 0 011.042-.041l.062.058c.28.289.293.739.042 1.042l-.058.062-3.22 3.124a.781.781 0 01-1.024.055l-.063-.055L1.05 9.94z"/>
  </g>
  <g fill="var(--icon-fill-2, #181D1E)">
    <path d="M8.575 4.256A.781.781 0 017.55 5.433l-.064-.056-2.675-2.596-2.675 2.596a.781.781 0 01-1.042.042l-.062-.058A.781.781 0 01.99 4.319l.058-.063 3.22-3.124a.781.781 0 011.024-.054l.063.054 3.219 3.124z"/>
  </g>
</svg>
