<svg xmlns="http://www.w3.org/2000/svg" style="width: var(--icon-width, 18px); height: var(--icon-height, 18px);" viewBox="0 0 18 18">
  <path fill="var(--icon-fill, #181D1E)" fill-rule="evenodd" d="M9.094 1.963a1.012 1.012 0 0 0-.684.256L5.05 5.22H2.64c-.9 0-1.64.744-1.64 1.647v3.295c0 .903.74 1.647 1.64 1.647h2.41l3.36 3c.314.28.759.322 1.095.17a1.04 1.04 0 0 0 .603-.935V2.985a1.04 1.04 0 0 0-.602-.935 1.01 1.01 0 0 0-.412-.087Zm5.83.688a.552.552 0 0 0-.447.83c1.961 3.4 1.968 6.668 0 10.066a.551.551 0 0 0 .468.841.546.546 0 0 0 .477-.29c2.128-3.674 2.12-7.493 0-11.166a.546.546 0 0 0-.498-.28Zm-5.909 11.23V3.148L5.621 6.18a.547.547 0 0 1-.363.138H2.64a.54.54 0 0 0-.546.55v3.294c0 .31.238.549.546.549h2.62c.133 0 .262.05.362.139l3.394 3.031Zm4.283-9.766a.552.552 0 0 0-.483.81c1.26 2.425 1.26 4.754 0 7.18a.551.551 0 0 0 .507.81.547.547 0 0 0 .462-.303c1.4-2.692 1.4-5.502 0-8.195a.546.546 0 0 0-.486-.302Zm-2.115 2.101a.546.546 0 0 1 .969.062c.667 1.467.666 3.014-.004 4.48a.546.546 0 1 1-.993-.457c.555-1.215.555-2.351.003-3.566a.551.551 0 0 1 .025-.519Z" clip-rule="evenodd"/>
</svg>
