<svg xmlns="http://www.w3.org/2000/svg" style="width: var(--icon-width, 18px); height: var(--icon-height, 18px);" viewBox="0 0 18 18">
  <path fill="var(--icon-fill, #181D1E)" fill-rule="evenodd" d="M8.463 1.332a.6.6 0 0 1 1.074 0l2.06 4.122 4.894.753a.6.6 0 0 1 .333 1.017L13.44 10.61l.754 4.899a.6.6 0 0 1-.87.623L9 13.877l-4.323 2.255a.6.6 0 0 1-.87-.623l.754-4.9-3.385-3.385a.6.6 0 0 1 .332-1.017l4.894-.753 2.061-4.122Zm2.2 4.936L9 2.941 7.337 6.268a.6.6 0 0 1-.446.325l-4.03.62 2.763 2.763a.6.6 0 0 1 .169.516l-.62 4.028 3.55-1.852a.6.6 0 0 1 .554 0l3.55 1.852-.62-4.028a.6.6 0 0 1 .169-.516l2.762-2.763-4.03-.62a.6.6 0 0 1-.445-.325Z" clip-rule="evenodd"/>
</svg>
