<svg xmlns="http://www.w3.org/2000/svg" fill="currentColor" viewBox="0 0 18 18">
  <path fill="#181D1E" fill-rule="evenodd" d="M6.471 6.263C6.471 3.363 8.835 1 11.735 1a5.25 5.25 0 0 1 2.342.554.631.631 0 0 1 .165 1.012L11.35 5.457v.001a.832.832 0 0 0 0 1.19.832.832 0 0 0 .596.247c.216 0 .428-.08.595-.247l2.893-2.891a.632.632 0 0 1 1.012.165c.35.703.554 1.499.554 2.341 0 2.9-2.364 5.263-5.264 5.263-.593 0-1.152-.124-1.684-.306l-5.101 5.101a2.32 2.32 0 0 1-3.276 0c-.9-.898-.9-2.375 0-3.274l5.102-5.101c-.181-.532-.306-1.09-.306-1.683Zm6.179-3.891a3.99 3.99 0 0 0-4.915 3.891c0 .572.121 1.113.337 1.605a.632.632 0 0 1-.131.701L2.568 13.94a1.043 1.043 0 0 0 0 1.489c.208.208.474.308.745.308.27 0 .535-.1.744-.309l5.373-5.371a.632.632 0 0 1 .7-.132 3.973 3.973 0 0 0 1.606.338 3.99 3.99 0 0 0 3.892-4.914L13.434 7.54a2.107 2.107 0 0 1-2.977 0 2.114 2.114 0 0 1 0-2.977l2.193-2.192Z" clip-rule="evenodd"/>
</svg>
