<svg xmlns="http://www.w3.org/2000/svg" fill="currentColor" viewBox="0 0 18 18">
  <path fill="#181D1E" fill-rule="evenodd" d="M4.313 7.5a.938.938 0 0 0-.938.938v5.25c0 .517.42.937.938.937h9.375c.517 0 .937-.42.937-.938v-5.25a.938.938 0 0 0-.938-.937h-.75a.562.562 0 1 1 0-1.125h.75c1.14 0 2.063.923 2.063 2.063v5.25a2.063 2.063 0 0 1-2.063 2.062H4.313a2.063 2.063 0 0 1-2.063-2.063v-5.25c0-1.139.923-2.062 2.063-2.062h.75a.563.563 0 0 1 0 1.125h-.75Z" clip-rule="evenodd"/>
  <path fill="#181D1E" fill-rule="evenodd" d="M9 3c.31 0 .563.252.563.563v8.624a.562.562 0 1 1-1.126 0V3.563A.564.564 0 0 1 9 3Z" clip-rule="evenodd"/>
  <path fill="#181D1E" fill-rule="evenodd" d="M8.602 2.415c.22-.22.576-.22.796 0l2.25 2.25a.562.562 0 1 1-.796.795L9 3.608 7.148 5.46a.563.563 0 0 1-.796-.795l2.25-2.25Z" clip-rule="evenodd"/>
</svg>
