<svg xmlns="http://www.w3.org/2000/svg" fill="currentColor" viewBox="0 0 18 18">
  <path fill="#181D1E" fill-rule="evenodd" d="M1 9c0-4.411 3.589-8 8-8s8 3.589 8 8-3.589 8-8 8-8-3.589-8-8Zm14.8 0A6.79 6.79 0 0 0 9 2.2 6.79 6.79 0 0 0 2.2 9 6.79 6.79 0 0 0 9 15.8 6.79 6.79 0 0 0 15.8 9ZM9 4.6A2.41 2.41 0 0 0 6.6 7v.2a.6.6 0 1 0 1.2 0V7c0-.67.53-1.2 1.2-1.2.67 0 1.2.53 1.2 1.2 0 .87-.21 1.033-.583 1.321a13.985 13.985 0 0 0-.176.137c-.199.153-.436.336-.643.618-.24.325-.398.78-.398 1.324a.6.6 0 1 0 1.2 0c0-.341.066-.48.165-.614.097-.132.264-.264.496-.446l.01-.007C10.742 8.96 11.4 8.263 11.4 7A2.41 2.41 0 0 0 9 4.6ZM8.2 13a.8.8 0 1 1 1.6 0 .8.8 0 0 1-1.6 0Z" clip-rule="evenodd"/>
</svg>
