<svg xmlns="http://www.w3.org/2000/svg" style="width: var(--icon-width, 18px); height: var(--icon-height, 18px);" fill="currentColor" viewBox="0 0 18 18">
  <path fill="var(--icon-fill, #181D1E)" fill-rule="evenodd" d="M3.095 2.525C1.945 2.525 1 3.47 1 4.621v8.761c0 1.15.945 2.096 2.095 2.096h11.81c1.15 0 2.095-.945 2.095-2.095V4.62c0-1.15-.945-2.096-2.095-2.096H3.095Zm0 1.143h11.81c.532 0 .952.42.952.953v8.761c0 .533-.42.953-.952.953H3.095a.944.944 0 0 1-.952-.953v-8.76c0-.533.42-.953.952-.953ZM7.471 6.44a.76.76 0 0 1 .756-.01l3.428 1.906a.762.762 0 0 1 0 1.332l-3.428 1.904a.765.765 0 0 1-.756-.009.763.763 0 0 1-.376-.657v-3.81c0-.269.143-.519.376-.656Z" clip-rule="evenodd"/>
</svg>
