<svg viewBox="0 0 138 204" xmlns="http://www.w3.org/2000/svg" xmlns:xlink="http://www.w3.org/1999/xlink">
  <defs>
    <path id="a" d="M0 0h74v95H0z"/>
    <path id="c" d="M0 0h3v9H0z"/>
  </defs>
  <g fill="none" fill-rule="evenodd">
    <path d="M63.892 5.07c-.016 2.125.326 3.963 1.087 5.712.068.156.135.314.22.46.108.184.375.17.483-.022.229-.404.295-.854.357-1.31.142-1.049.197-2.104.227-3.16.037-1.358-.18-2.674-.718-3.924-.171-.396-.377-.764-.712-1.04-.222-.184-.439-.145-.533.114-.078.213-.129.436-.18.657-.211.897-.159 1.818-.23 2.513m5.322 15.15c.024-1.192-.118-2.3-.35-3.392-.259-1.226-.78-2.324-1.692-3.195-.16-.152-.323-.222-.519-.07-.428.33-.897.443-1.417.278-.196-.063-.325.04-.412.199-.359.654-.63 1.345-.694 2.098-.104 1.234-.059 2.464.21 3.674.21.958.58 1.851 1.153 2.647.25.347.535.66.865.927.17.137.352.177.54.048.46-.317.965-.429 1.51-.374.27.027.416-.114.484-.365.052-.193.115-.384.153-.58.127-.647.197-1.301.169-1.894m-3.302 9.743c-.027 2.162.506 4.046 1.304 5.862.113.258.288.488.443.726.124.191.288.247.501.144.648-.315 1.313-.46 2.022-.232.144.047.277-.025.34-.174.077-.183.151-.37.204-.56.185-.664.295-1.34.301-2.03.02-1.995-.327-3.927-.954-5.81a15.046 15.046 0 0 0-.837-1.962c-.147-.296-.215-.318-.53-.217-.371.12-.746.293-1.137.224-.756-.133-.795.006-1.085.731-.146.369-.244.76-.349 1.144-.205.752-.17 1.532-.223 2.154m-.581-4.762c-.494-.449-.93-.847-1.299-1.318-1.25-1.596-1.88-3.436-1.997-5.461-.055-.942-.066-1.887.109-2.828a6.454 6.454 0 0 1 1.172-2.724c.067-.09.132-.186.21-.266.208-.211.24-.441.095-.7-.041-.075-.072-.155-.11-.232-1.028-2.044-1.34-4.233-1.226-6.504.04-.83.087-1.66.238-2.479.098-.536.212-1.067.454-1.558.528-1.068 1.473-1.407 2.525-.903.547.261.962.677 1.293 1.188.63.971.965 2.06 1.178 3.192.176.935.195 1.877.081 2.824-.068.568-.09 1.142-.151 1.712-.076.712-.153 1.424-.353 2.115a.398.398 0 0 0 .143.455c1.864 1.51 2.712 3.582 3.068 5.916.099.65.167 1.308.203 1.965.085 1.536-.084 3.036-.75 4.438-.14.298-.078.536.051.809.661 1.396 1.187 2.843 1.469 4.374.238 1.296.416 2.6.449 3.922a11.164 11.164 0 0 1-.476 3.56c-.125.407-.126.722.147 1.102a6.41 6.41 0 0 1 1.08 2.403c.06.284.084.567.048.853-.038.298-.217.52-.44.565-.275.056-.507-.038-.65-.279a4.187 4.187 0 0 1-.318-.696c-.206-.564-.43-1.12-.733-1.637-.095-.163-.238-.254-.418-.136-.595.394-1.238.48-1.924.357-.19-.035-.308.075-.368.266-.275.88-.39 1.788-.46 2.703-.155 2.015.271 3.928.978 5.79.08.21.197.409.176.653-.022.243-.252.415-.477.339-.248-.084-.432-.258-.596-.456a5.366 5.366 0 0 1-.823-1.391c-.61-1.494-.975-3.053-1.022-4.671-.037-1.273.238-2.504.66-3.699.058-.161.128-.318.195-.476.063-.148.024-.277-.06-.4-.017-.024-.032-.048-.05-.07-1.255-1.586-1.796-3.472-2.15-5.433a12.99 12.99 0 0 1 .004-4.7 7.935 7.935 0 0 1 .485-1.64c.11-.262.213-.527.34-.844" fill="#FFF"/>
    <path d="M72.54 65.418c.013.31.007.69.052 1.065.152 1.267.516 2.457 1.262 3.489.162.223.349.44.56.607.424.334.88.235 1.15-.233.124-.214.234-.445.303-.683.228-.79.303-1.603.286-2.426-.03-1.49-.557-2.824-1.198-4.12a1.882 1.882 0 0 0-.659-.762c-.436-.28-.967-.326-1.335.257-.169.268-.292.548-.354.86a6.134 6.134 0 0 0-.068 1.946m-.518 10.95c.031-.904.04-1.723.19-2.532.104-.56.256-1.102.517-1.605.11-.212.141-.399-.015-.608-.923-1.234-1.226-2.718-1.506-4.205-.216-1.15-.214-2.319-.203-3.486.007-.704.14-1.372.483-1.991.194-.354.35-.722.296-1.163-.03-.242.148-.408.372-.466.203-.052.415-.065.622-.104 1.928-.365 2.163-.946 2.372-2.74.04-.343.003-.69-.07-1.034a4.86 4.86 0 0 1-.089-.748c-.015-.276.106-.49.348-.607a.673.673 0 0 1 .764.091c.197.159.314.382.408.615.242.597.303 1.224.186 1.854-.126.68-.297 1.35-.451 2.024a3.4 3.4 0 0 1-.531 1.191c-.128.184-.084.336.045.506.965 1.265 1.409 2.762 1.719 4.314.25 1.249.247 2.5.015 3.757-.091.497-.17 1.002-.388 1.45-.237.49-.21.809.213 1.21.999.947 1.5 2.19 1.64 3.584.137 1.348-.031 1.247-1.007 1.79-.23.13-.393.01-.428-.28-.056-.47-.098-.94-.167-1.406-.147-.994-.593-1.842-1.196-2.609a2.134 2.134 0 0 0-.187-.205c-.282-.275-.506-.308-.805-.084-.446.334-.836.74-1.07 1.26-.27.597-.474 1.221-.46 1.906.022 1.102-.028 2.204.17 3.3.072.396.032.816.025 1.225a.412.412 0 0 1-.313.412c-.191.051-.36-.025-.48-.18a2.725 2.725 0 0 1-.296-.472 6.19 6.19 0 0 1-.618-2.161c-.055-.628-.075-1.258-.105-1.803" fill="#FFF"/>
    <path d="m79.189 99.412.055-.002c-.034-.483-.043-.97-.11-1.448-.059-.413-.175-.818-.281-1.221a2.985 2.985 0 0 0-.231-.628c-.347-.655-.868-.865-1.576-.767-.41.057-.649.272-.827.636a4.262 4.262 0 0 0-.343.995c-.332 1.564.001 3.013.637 4.41.133.293.327.54.579.728.58.434 1.242.325 1.663-.284a2.41 2.41 0 0 0 .43-1.257c.02-.386.004-.775.004-1.162m-3.14 4.537c-.012-.029-.016-.068-.036-.085-1.284-1.133-1.67-2.718-1.849-4.386-.168-1.577 0-3.105.805-4.488.133-.229.093-.416-.065-.612-.399-.494-.7-1.048-.844-1.693-.058-.256-.094-.507-.013-.764.133-.424.49-.58.855-.38.248.134.432.343.617.556.204.236.398.486.623.698.47.444.936.483 1.486.16.324-.19.564-.477.784-.786.146-.205.272-.429.43-.622.137-.168.289-.337.464-.449.372-.236.808-.026.926.42.114.431.04.838-.162 1.216-.194.364-.403.72-.615 1.072-.114.19-.105.348.026.525 1.619 2.18 1.808 4.642 1.2 7.25-.14.602-.433 1.132-.782 1.628-.277.393-.262.401.028.823.178.26.35.525.518.792.484.763.579 1.614.488 2.51-.03.297-.122.565-.288.802a.447.447 0 0 1-.64.122c-.314-.216-.505-.544-.678-.888-.243-.483-.483-.969-.837-1.374-.402-.46-.527-.47-.97-.094-.367.311-.6.715-.747 1.185-.134.43-.258.863-.41 1.285-.107.298-.227.649-.594.627-.354-.02-.48-.344-.55-.672-.296-1.375-.287-2.7.566-3.881.09-.127.166-.266.245-.402.015-.026.013-.063.019-.095" fill="#FFF"/>
    <path d="M15.855 69.877c.217.124.493.147.768.102a.506.506 0 0 0 .203-.07c.105-.076.013-.138-.052-.203-.598-.596-.592-.681.058-1.254.069-.06.118-.132.168-.19-.045-.063-.067-.118-.114-.156-.148-.12-.345-.146-.503-.038-.438.303-.86.619-1.277.936-.15.114-.134.26.006.368.232.179.477.353.743.505" fill="#FFF"/>
    <path d="M11.447 75.621c.266.192.54.358.852.377.296.018.551-.073.701-.59l-.414-.08c-.327-.064-.473-.363-.53-.725-.06-.385.075-.692.341-.892.086-.064.19-.084.28-.143.13-.084.125-.264-.004-.382-.288-.263-.42-.256-.645.078-.264.39-.518.79-.767 1.196-.386.627-.36.769.186 1.161" fill="#FFF"/>
    <path d="M65.557 116.657c.29-.153.605-.161.916-.083.29.073.408.473.21.69-.077.082-.173.147-.261.219a17.612 17.612 0 0 0-3.451 3.773c-.579.847-1.131 1.713-1.695 2.57-.094.143-.182.29-.282.428-.051.07-.143.115-.219.066a.388.388 0 0 1-.135-.197c-.026-.079-.016-.17-.027-.335.054-.26.107-.598.195-.927.633-2.378 1.932-4.3 3.944-5.723.254-.18.53-.334.805-.48m-5.704 4.213c-1.062 1.75-1.547 3.677-1.837 5.672-.051.349.007.429.4.511.836.176 1.677.336 2.517.495 1.653.314 3.301.646 4.916 1.126 2.782.828 5.369 2.082 7.85 3.57.367.221.732.447 1.094.675.164.102.316.116.47-.014l1.636-1.382c.137-.115.123-.244.028-.372-.085-.115-.18-.223-.27-.334-1.655-2.054-2.683-4.375-2.95-7.014-.272-2.679.437-5.04 2.29-7.023.098-.105.198-.206.303-.303.178-.164.174-.334.059-.536-.283-.496-.587-.984-.824-1.502-.515-1.125-.856-2.302-.894-3.55 0-.23.008-.458-.002-.686-.006-.13-.1-.212-.225-.203-.14.009-.28.045-.417.082a18.08 18.08 0 0 0-3.584 1.388c-.813.418-1.623.84-2.432 1.263-1.685.88-3.165 2.041-4.53 3.354-1.456 1.4-2.557 3.067-3.598 4.783" fill="#FFF"/>
    <path d="M19.136 73.361c0-.33.197-.565.486-.575.329-.011.569.245.56.597-.008.292-.262.549-.536.542-.274-.008-.51-.267-.51-.564m-1.39 2.842c-.32-.006-.628-.268-.65-.553-.024-.327.213-.569.577-.587.372-.02.618.185.631.523.013.332-.25.622-.558.617m11.102 1.337c-.144.764-.356 1.515-.545 2.27-.376 1.497-1.193 2.74-2.227 3.845a13.02 13.02 0 0 1-2.87 2.317 5.145 5.145 0 0 1-1.594.613c-.318.066-.626.039-.897-.172-.192-.15-.214-.456-.025-.601.135-.103.288-.185.442-.259 1.55-.74 2.797-1.884 3.998-3.086.393-.394.631-.892.851-1.393.929-2.117 1.409-4.324 1.26-6.65-.002-.03 0-.059-.003-.087-.032-.224.03-.522-.204-.624-.246-.108-.402.155-.54.316-.582.676-1.168 1.348-1.713 2.052-2.016 2.601-3.674 5.43-5.152 8.37-.22.437-.432.878-.658 1.313-.079.15-.173.3-.287.424-.103.112-.253.123-.397.06-.122-.053-.167-.17-.16-.28.013-.228.025-.466.096-.68.362-1.094.734-2.185 1.121-3.27.243-.68.56-1.328.946-1.938 1.121-1.777 2.245-3.552 3.467-5.261.418-.586.852-1.157 1.381-1.65.208-.194.379-.432.55-.661.12-.16.055-.346-.151-.402-1.31-.357-2.627-.55-3.975-.212-.219.055-.319.19-.436.367-.26.389-.491.425-.858.184a1.818 1.818 0 0 1-.265-.218c-.336-.327-1.03-.093-1.23.354-.121.27-.168.551-.122.844.023.141.082.277.106.418.065.379-.11.611-.498.636-.227.014-.457-.014-.685-.016-.324-.003-.621.077-.874.295-.454.394-.491.92-.089 1.365.197.216.432.378.713.461.11.032.23.03.335.07.454.172.612.716.246 1.046-.7.631-.852 1.49-1.005 2.329-.406 2.215.05 4.3 1.07 6.276.12.23.257.45.375.681.102.199.088.391-.077.555-.16.158-.408.166-.622-.014a5.23 5.23 0 0 1-.927-1.014 5.019 5.019 0 0 1-.578-1.156 13.367 13.367 0 0 1-.842-4.66c0-.912.064-1.849.396-2.728.129-.341.113-.634-.105-.97-.405-.625-.494-1.345-.398-2.083.13-1.007.784-1.667 1.782-1.812.085-.012.173-.03.256-.017.34.052.46-.155.514-.435.106-.567.447-.988.822-1.392.43-.462.928-.672 1.538-.401.294.13.542.094.8-.093.53-.385 1.153-.48 1.784-.529 1.128-.087 2.222.09 3.29.443.46.154.911.338 1.365.51.725.275 1.161.811 1.371 1.551.238.838.369 1.69.348 2.624.053.696-.076 1.44-.214 2.175m-9.03 40.1c-.022.176-.203.18-.339.196-.198.023-.398.025-.598.036-.607-.006-1.187-.153-1.76-.337a13.34 13.34 0 0 1-3.178-1.482c-1.542-.995-3.041-2.052-4.335-3.371-1.266-1.29-2.156-2.825-2.828-4.498-.14-.35-.238-.711-.18-1.095.027-.18.113-.33.302-.377.153-.039.286.032.378.147.162.2.32.407.46.623.423.65.834 1.31 1.256 1.96.724 1.117 1.597 2.103 2.578 2.996 1.964 1.788 4.092 3.323 6.532 4.387.471.205.936.425 1.44.542.146.034.292.105.272.273M4.983 88.476c-.086-1.167.345-2.145 1.213-2.92.172-.153.37-.269.614-.278.235-.008.465-.003.605.23.134.222.1.445-.039.65-.097.141-.212.27-.327.4-.318.357-.45.795-.54 1.253-.036.184-.008.346.162.452.156.097.32.112.49.03.288-.141.523-.348.714-.606.136-.185.255-.385.406-.557.252-.287.567-.243.78.086.167.257.172.537.151.83-.065.924-1.136 2.112-2.387 2.089-1.022.008-1.765-.63-1.842-1.66m2.11-10.08c.096-.21.185-.424.304-.619.72-1.177 1.451-2.35 2.308-3.43 1.891-2.385 3.842-4.72 6.022-6.846.308-.3.622-.595.952-.868.174-.145.376-.273.587-.348.468-.165.943.232.83.722-.07.296-.034.479.182.682.184.174.346.387.469.61.584 1.06.322 2.042-.476 2.726-.963.825-2.142 1.022-3.109-.072-.314-.355-.38-.355-.665-.039-.481.532-.953 1.072-1.418 1.62-.305.359-.31.38.005.709.449.468.731 1.023.94 1.628.36 1.05.045 1.926-.69 2.68-.335.343-.814.475-1.524.457-.432.003-.912-.173-1.363-.434-.197-.113-.376-.26-.565-.389-.273-.187-.352-.183-.553.098-.4.562-.794 1.127-1.174 1.702-.221.336-.529.415-.89.373-.16-.019-.252-.127-.27-.287-.027-.233 0-.461.098-.676m-3.03-9.973c-.013.204-.14.43-.261.66-.24.458-.485.914-.722 1.375-.552 1.074-.733 2.238-.769 3.427-.031 1.009-.028 2.018-.158 3.021-.022.17-.028.352-.203.45-.111.062-.276-.11-.366-.398a3.012 3.012 0 0 1-.12-.504c-.243-1.831-.453-3.664-.14-5.51.103-.6.29-1.174.546-1.724.209-.45.508-.835.882-1.158.2-.171.422-.292.69-.318.402-.039.665.216.621.679m38.003-.9a1.3 1.3 0 0 1 .346-.589c.302-.306.595-.625.92-.904 2.623-2.247 5.42-4.233 8.524-5.753.797-.39 1.605-.752 2.447-1.032.3-.1.601-.186.92-.149.082.01.17.042.177.156-.014.05-.013.12-.047.151-.19.174-.384.345-.585.506-1.864 1.485-3.863 2.77-5.865 4.053-1.712 1.097-3.422 2.195-5.135 3.29-.29.185-.587.357-.88.534a.915.915 0 0 1-.487.143c-.204-.001-.385-.213-.335-.406m13.302 38.864c.21-.274.42-.548.642-.812 1.645-1.96 3.295-3.914 4.939-5.875.886-1.057 1.755-2.13 2.645-3.184.37-.438.772-.85 1.168-1.265a.81.81 0 0 1 .44-.254c.13-.024.311.092.328.318-.011.044-.035.185-.084.316a8.3 8.3 0 0 1-1.063 1.97 25.593 25.593 0 0 1-1.273 1.632c-1.815 2.119-3.71 4.162-5.77 6.041-.55.502-1.137.965-1.717 1.434-.093.076-.232.238-.36.062-.098-.137.02-.272.105-.383m-8.659 9.531c1.365-.95 2.722-1.912 4.033-2.94 2.01-1.575 3.95-3.237 5.899-4.89 3.154-2.678 6.13-5.548 8.977-8.554 1.404-1.483 2.753-3.011 3.915-4.702.373-.544.816-1.04 1.228-1.557.628-.786 1.252-1.574 1.887-2.354.453-.556.92-1.102 1.386-1.646.222-.259.463-.328.832-.232 1.194.313 2.408.451 3.645.238 1.429-.245 2.754-.743 3.962-1.556a3.55 3.55 0 0 0 1.41-1.801c.108-.308.159-.62.076-.934-.048-.183-.05-.43-.291-.486-.203-.046-.292.148-.406.267-1.085 1.124-2.403 1.843-3.886 2.27a3.903 3.903 0 0 1-1.699.088c-.219-.034-.298-.28-.169-.47.15-.221.357-.375.578-.508.564-.34 1.127-.683 1.704-.999.732-.401 1.425-.853 2.018-1.45.455-.457.805-.984.942-1.622.199-.927.064-1.766-.757-2.468-.063.096-.115.166-.157.24-.877 1.578-2.204 2.709-3.639 3.731-.397.283-.815.53-1.282.69a1.58 1.58 0 0 1-.671.093c-.254-.024-.405-.238-.348-.487.06-.26.203-.472.367-.676.29-.363.653-.644 1.013-.93.99-.788 1.926-1.632 2.7-2.647a3.558 3.558 0 0 0 .722-1.733c.05-.386-.014-.75-.165-1.098-.094-.216-.255-.396-.519-.387-.194.008-.287.166-.372.32-.056.1-.11.203-.171.3-.692 1.1-1.46 2.14-2.388 3.05-.575.563-1.191 1.083-1.884 1.493-.752.446-1.546.743-2.448.591a1.69 1.69 0 0 0-.928.081c-.41.165-.53.37-.408.801.133.472.285.937.422 1.408.039.136.073.28.074.42.001.224-.29.421-.496.342-.104-.04-.229-.089-.29-.174-.273-.38-.595-.347-.985-.205-.859.314-1.722.62-2.597.883a2054.28 2054.28 0 0 1-10.11 2.991c-1.508.444-3.06.71-4.582 1.099-1.576.402-3.13.901-4.7 1.328-2.95.802-5.92 1.523-8.845 2.42-2.432.745-4.874 1.456-7.363 1.985-.753.16-1.515.283-2.278.398-.392.059-.583-.15-.576-.55a.664.664 0 0 1 .318-.578c.364-.24.774-.37 1.182-.498.9-.282 1.798-.566 2.667-.942 1.312-.568 2.659-1.05 4.015-1.502 3.825-1.274 7.715-2.323 11.583-3.447 1.263-.366 2.53-.712 3.794-1.075.27-.078.329-.215.208-.443-.5-.942-1.002-1.881-1.507-2.82a5.523 5.523 0 0 0-.273-.44c-.106-.159-.25-.23-.44-.157-.187.07-.377.134-.56.213-.53.229-1.086.356-1.649.46a1.678 1.678 0 0 1-1.086-.146c-.282-.144-.36-.462-.194-.735.125-.207.322-.32.52-.438 1.647-.984 3.283-1.989 4.943-2.953 2.064-1.2 3.954-2.644 5.796-4.156.155-.127.3-.269.44-.412 2.843-2.913 5.38-6.052 7.215-9.734.68-1.365 1.512-2.65 2.235-3.995 1.05-1.952 2.053-3.93 3.186-5.836.144-.242.123-.408-.042-.618a2 2 0 0 1-.439-1.37c.023-.438.167-.845.325-1.25.08-.204.265-.379.194-.644-.075-.032-.15-.076-.23-.095-.896-.208-1.58-.652-1.828-1.613-.044-.17-.192-.19-.346-.138-.27.092-.543.178-.812.275-3.339 1.213-6.548 2.725-9.719 4.322-4.556 2.293-8.95 4.877-13.258 7.614-3.898 2.478-7.683 5.117-11.254 8.061-.42.347-.832.704-1.235 1.072-.344.314-.35.342-.162.736a7.59 7.59 0 0 1 .72 2.478c.098.918.199 1.835.289 2.754.065.66.124 1.321.169 1.983a5.659 5.659 0 0 1-.198 1.971.433.433 0 0 1-.21.247c-.119.054-.222-.058-.272-.155-.145-.28-.292-.564-.398-.86-.3-.846-.442-1.73-.559-2.617-.161-1.23-.308-2.463-.49-3.689-.145-.964-.542-1.817-1.247-2.503-.515-.5-1.031-1-1.553-1.492a7.198 7.198 0 0 0-1.524-1.115c-1.564-.843-3.153-1.63-4.839-2.198-1.191-.402-2.39-.784-3.59-1.155-1.038-.32-2.082-.669-3.162-.762-2.02-.175-4.044-.343-6.074-.352-1.846-.007-3.63.338-5.365.982a6.305 6.305 0 0 0-2.227 1.423c-.685.668-1.28 1.411-1.496 2.38-.275 1.238-.509 2.484-.606 3.754-.071.925-.044 1.844-.001 2.768.111 2.392.102 4.79.379 7.173.113.974.24 1.947.37 2.92.009.072.064.18.12.197.144.044.203-.084.229-.194.134-.566.363-1.093.626-1.607.093-.18.185-.363.366-.47a.338.338 0 0 1 .326-.022c.12.054.164.16.172.276.025.359-.14.672-.247 1-.107.327-.247.647-.32.983a21.558 21.558 0 0 0-.41 2.998c-.11 1.525-.183 3.053-.286 4.578-.168 2.494.01 4.963.542 7.4.344 1.575.693 3.152 1.235 4.675.085.242.128.505.15.762.097 1.212.35 2.397.594 3.583a14.266 14.266 0 0 0 1.17 3.427c.07.143.11.34.366.319.12-.417.049-.851.059-1.279.008-.348.016-.695.13-1.026.125-.364.551-.453.835-.188.195.182.295.423.408.655.25.519.494 1.041.75 1.557.63 1.267 1.346 2.48 2.207 3.603.136.177.23.407.493.456.164-.217.006-.438.01-.655.012-.62.468-.95 1.047-.748.133.046.256.125.378.198 1.133.674 2.26 1.358 3.397 2.023 2.853 1.67 5.91 2.742 9.193 3.106a67.63 67.63 0 0 0 4.015.328c1.457.074 2.91-.02 4.357-.242 1.475-.226 2.897-.645 4.312-1.104 3.448-1.116 6.704-2.631 9.693-4.713" fill="#FFF"/>
    <path d="M74.32 44.436c.307-.034.547.104.69.373.141.268.088.52-.061.748a1.996 1.996 0 0 1-.34.381c-.274.247-.556.484-.837.72-.544.455-1.044.96-1.512 1.504-.432.502-.796 1.057-1.015 1.707-.173.514-.001.814.498.843.187.012.39-.01.565-.076.57-.217 1.122-.471 1.566-.945.272-.29.58-.542.877-.805a1.67 1.67 0 0 1 .34-.246.672.672 0 0 1 .88.234c.188.29.168.59-.07.89-.089.112-.2.202-.299.305-.572.597-1.145 1.192-1.714 1.792-.354.374-.662.79-.94 1.232a3.11 3.11 0 0 0-.42.958c-.13.574.123.917.666.947.37.02.705-.096 1.021-.285.656-.393 1.202-.923 1.684-1.542.844-1.082 1.417-2.31 1.794-3.659.2-.714.346-1.43.298-2.158.027-.677-.068-1.323-.182-1.96-.221-1.241-.805-2.25-1.772-2.988-.37-.284-.772-.456-1.231-.393a9.958 9.958 0 0 0-4.719 1.943 4.043 4.043 0 0 0-1.038 1.127c-.102.169-.039.385.136.43.48.126.96.234 1.464.157a9.753 9.753 0 0 0 3.133-1.03c.174-.092.345-.182.539-.204" fill="#FFF"/>
    <path d="M76.012 123.534c.198 1.899.779 3.667 1.787 5.29.382.616.736 1.25 1.102 1.877.182.313.28.37.571.217 1.79-.943 3.674-1.654 5.573-2.331a1.71 1.71 0 0 0 .532-.33c.976-.857 1.927-1.741 2.918-2.577.396-.334.524-.732.503-1.201a22.161 22.161 0 0 0-.147-1.904c-.257-1.944-.975-3.676-2.358-5.1-.982-1.01-2.174-1.493-3.563-1.474-1.315.017-2.545.385-3.707 1.001-1.313.696-2.19 1.772-2.734 3.144a6.627 6.627 0 0 0-.48 2.662c0 .242-.022.487.003.726" fill="#FFF"/>
    <path d="M22.766 66.732c.116.046.236.082.35.131.748.32.716.05.854-.5.022-.09.02-.187.03-.301-.082-.377-.106-.835-.533-1.013-.42-.175-.712.156-.952.435-.746.865-.698.873.25 1.248" fill="#FFF"/>
    <path d="M51.886 143.21a2.231 2.231 0 0 1-1.035-.381c-1.569-1.066-2.824-2.402-3.558-4.17-.12-.286-.187-.596-.255-.9a.624.624 0 0 1 .138-.56c.14-.164.36-.207.536-.096.248.157.41.396.583.62a56.867 56.867 0 0 1 2.452 3.399c.392.593.778 1.196 1.356 1.641.092.071.162.157.142.286-.016.105-.172.175-.359.162m27.876-.997c.117-.197.47-.252.787-.118.348.149.625.393.854.692.316.412.529.873.678 1.368.313 1.043.413 2.116.478 3.207-.014.412.04.845-.15 1.246a.35.35 0 0 1-.17.165c-.09.035-.16-.045-.19-.122a8.56 8.56 0 0 1-.239-.637c-.295-.92-.594-1.839-.873-2.764-.255-.847-.544-1.675-1.063-2.407-.133-.188-.252-.395-.112-.63m-13.4 5.008c1.493-.018 2.978-.098 4.445-.4.728-.15 1.459-.29 2.19-.431.225-.043.456-.064.681.001.356.102.48.56.224.827-.162.17-.37.265-.596.323-.609.157-1.218.312-1.827.47-.416.108-.83.217-1.245.33-.2.054-.264.203-.237.392.055.394.139.786.17 1.182.065.823.105 1.647.153 2.471.066 1.11.091 2.219-.106 3.323-.049.274-.096.562.03.893.33-.102.467-.332.651-.501.378-.349.742-.712 1.124-1.057.146-.133.313-.251.488-.343a.7.7 0 0 1 .906.234c.077.116.135.253.17.389.09.357.193.712.186 1.09-.006.341.017.683.038 1.024.01.163.183.229.312.117.173-.149.34-.306.5-.468.463-.467.92-.938 1.383-1.406.12-.121.237-.25.376-.347.42-.287.885-.112.992.375.043.193.056.397.046.594-.023.426-.072.85-.105 1.276a13.5 13.5 0 0 0-.036.766c-.001.045.038.107.078.134.09.06.172.002.222-.063.155-.205.293-.422.449-.626.258-.34.524-.677.79-1.012.143-.182.329-.311.541-.41.516-.237.811-.134 1.013.392.175.453.279.926.317 1.411.02.255.018.516.137.75.04.08.137.106.21.041a.706.706 0 0 0 .148-.208c.788-1.55 1.62-3.078 2.318-4.672a18.17 18.17 0 0 0 1.442-5.337 9.138 9.138 0 0 0-.862-5.066 12.35 12.35 0 0 0-1.907-2.83 22.24 22.24 0 0 0-2.876-2.692 64.444 64.444 0 0 0-5.598-3.968c-3.413-2.154-7.05-3.776-11.012-4.663-2.095-.469-4.175-1.002-6.256-1.526-.944-.237-1.875-.521-2.81-.79-.303-.087-.603-.19-.848-.4-.178-.152-.11-.499.115-.563.135-.04.281-.062.421-.057.487.017.974.035 1.459.079.542.049 1.08.13 1.621.19.246.029.365-.076.39-.334.015-.17.013-.341.022-.511.112-2.09.697-4.031 1.832-5.8.385-.6.779-1.196 1.183-1.783a21.68 21.68 0 0 1 4.965-5.17c.527-.391 1.07-.763 1.61-1.14.162-.114.235-.247.132-.431-.238-.422-.437-.875-.731-1.254-.843-1.083-1.616-2.212-2.406-3.331-.652-.924-.585-.934-1.382-.071-1.007 1.092-2.004 2.193-3.105 3.195-2.268 2.061-4.693 3.92-7.243 5.625a53.4 53.4 0 0 1-14.138 6.714c-.109.034-.223.054-.33.091-.214.075-.25.237-.074.377.492.393.986.781 1.486 1.163 1.068.816 2.148 1.617 3.207 2.443 1.28.999 2.311 2.209 3.027 3.67.577 1.18.827 2.416.654 3.73a6.972 6.972 0 0 0-.051 1.107c.025.882.087 1.763.109 2.645.034 1.368.414 2.634 1.077 3.826.182.328.397.622.665.885a17.01 17.01 0 0 0 2.683 2.13c2.736 1.771 5.773 2.583 9.002 2.788 2.462.156 4.925.228 7.392.198" fill="#FFF"/>
    <g transform="translate(52 109)">
      <mask id="b" fill="#fff">
        <use xlink:href="#a"/>
      </mask>
      <path d="M64.04 75.64c.054-.219.137-.436.237-.639.226-.46.454-.92.71-1.366 1.447-2.523 2.34-5.252 2.952-8.085.248-1.148.31-2.32.428-3.484.082-.824.125-1.652.174-2.479.088-1.49-.137-2.964-.23-4.445-.045-.712-.14-1.421-.207-2.132a1.206 1.206 0 0 1 .005-.34.328.328 0 0 1 .126-.2c.08-.05.169.016.205.087.116.228.23.458.32.697.381.987.66 2.007.871 3.042.36 1.764.649 3.539.647 5.432.013 2.021-.4 4.057-.976 6.069-.74 2.58-1.956 4.923-3.46 7.124a9.02 9.02 0 0 1-.637.801c-.17.197-.39.33-.641.402-.292.083-.595-.186-.523-.483m-50.67 5.093c-.158.161-.398-.11-.575-.234-.987-.684-1.836-1.527-2.655-2.401a34.693 34.693 0 0 1-2.584-3.076c-2.134-2.885-3.586-6.083-4.26-9.628a7.964 7.964 0 0 1-.105-2.05c.014-.203.06-.395.179-.565.123-.176.282-.276.548-.27a.43.43 0 0 1 .373.242c.13.253.252.513.342.782.253.759.49 1.523.73 2.286 1.128 3.594 2.696 6.974 4.817 10.087.964 1.414 1.9 2.847 2.96 4.192.143.18.46.402.23.635M43.866 8.386C42.266 6.131 40.387 4.17 38.18 2.52 36.884 1.552 35.456.889 33.907.467c-1.213-.33-2.455-.435-3.703-.461-1.56-.033-3.114.082-4.667.25-1.011.108-.968.181-.925 1.188.005.113.032.226.057.338.19.867.438 1.716.762 2.542.198.507.447.989.74 1.446.103.16.242.218.437.144.45-.172.9-.35 1.36-.488.983-.293 1.988-.511 3.017-.414 1.981.187 3.634 1.013 4.884 2.62 2.009 2.582 2.583 5.538 2.273 8.728-.06.625-.162 1.248-.273 1.866-.263 1.463-.518 2.928-.983 4.345-.323.982-.738 1.92-1.27 2.804-.176.292-.362.583-.68.75-.167.088-.365.012-.399-.17-.065-.345-.007-.68.078-1.017.343-1.358.654-2.723.865-4.11.034-.225.057-.453.07-.681.008-.164-.114-.278-.265-.252-.195.033-.388.081-.58.128-1.745.421-3.4 1.085-5.011 1.87-.74.362-1.476.732-2.218 1.088a17.1 17.1 0 0 0-1.932 1.08c-1.086.707-1.105.585-.071 1.35 1.764 1.303 3.456 2.692 4.989 4.272a15.424 15.424 0 0 1 2.561 3.514c1.184 2.223 1.537 4.571 1.172 7.062a21.95 21.95 0 0 1-1.982 6.448c-1.347 2.773-2.657 5.567-4.185 8.248a8.047 8.047 0 0 0-.32.605c-.07.153-.003.288.137.356.203.1.416.181.629.259.803.291 1.556.688 2.304 1.097.43.235.807.53 1.086.942a1.73 1.73 0 0 1-.059 2c-.194.251-.439.439-.725.583-.449.227-.443.235-.372.744.02.141.034.284.035.427.005.634-.252 1.033-.825 1.261-.157.063-.328.084-.492.13a.266.266 0 0 0-.204.243c-.013.142-.006.285-.012.428-.028.571-.306.973-.828 1.187-.258.107-.585.112-.781.281-.198.17-.267.49-.403.739-.081.15-.173.297-.278.43-.373.475-.86.627-1.44.496a1.923 1.923 0 0 1-.699-.303c-.561-.399-1.067-.852-1.421-1.457-.145-.246-.302-.485-.44-.735a3.678 3.678 0 0 0-1.66-1.548 14.324 14.324 0 0 0-1.172-.502c-.928-.352-1.866-.677-2.792-1.035-1.789-.69-3.169-1.866-4.103-3.561-.345-.626-.702-1.245-.874-1.949-.564-2.315.876-3.842 2.535-4.113.223-.037.445-.085.668-.126a.455.455 0 0 0 .392-.4c.089-.592.254-1.17.254-1.78 0-1.058.043-2.116.063-3.174.008-.4.001-.8.001-1.201h-.03c-.028-1.058-.052-2.116-.082-3.174-.017-.6-.036-1.202-.067-1.801-.02-.357-.118-.427-.493-.395-.226.02-.453.04-.677.07-1.378.19-2.758.335-4.15.359-.425.007-.852.002-1.275.036-1.105.089-2.209.091-3.312-.026a78.323 78.323 0 0 1-1.603-.187c-.253-.032-.447.029-.554.282-.044.105-.1.205-.148.309-.761 1.663-1.442 3.358-1.989 5.107C.98 48.65.38 51.503.132 54.418a40.815 40.815 0 0 0-.091 5.145c.149 3.6.779 7.107 1.944 10.505 3.198 9.32 9.13 16.313 17.775 20.903 4.889 2.597 10.136 3.906 15.677 4.02 2.85.057 5.672-.139 8.45-.76 7.808-1.747 14.466-5.558 19.927-11.464a39.442 39.442 0 0 0 5.099-6.852c3.246-5.541 4.84-11.565 5.064-17.966a36.397 36.397 0 0 0-1.33-11.117c-1.903-6.818-5.296-12.736-10.465-17.575-3.171-2.969-6.77-5.27-10.756-6.959a6.591 6.591 0 0 0-.641-.222c-.109-.033-.232.089-.206.2.039.166.079.334.136.495.746 2.086 1.72 4.047 3.144 5.757.456.547.922 1.087 1.362 1.648.422.538.82 1.096 1.219 1.651.116.161.212.34.297.52.12.257-.028.442-.32.418-.438-.036-.81-.252-1.178-.462-2.073-1.184-3.69-2.824-4.862-4.922-1.125-2.011-1.904-4.15-2.387-6.4-.413-1.928-.782-3.866-1.207-5.791-.542-2.452-1.456-4.742-2.918-6.804" fill="#FFF" mask="url(#b)"/>
    </g>
    <path d="M78.466 163.719c.314-.57.65-1.127.978-1.688.117-.2.217-.402.124-.64-.21-.531-.275-1.09-.345-1.651-.03-.24-.052-.502-.235-.72-.191.02-.287.165-.392.294-.394.483-.784.969-1.183 1.448a3.513 3.513 0 0 1-.468.49c-.453.367-.986.174-1.083-.396-.052-.305-.063-.617-.085-.927-.036-.506-.062-1.013-.099-1.519-.008-.114-.17-.177-.256-.096-.288.273-.57.55-.848.832-.336.344-.638.726-1.003 1.036-.511.433-1.194.253-1.504-.341-.137-.262-.15-.542-.164-.823-.014-.282-.012-.565-.029-.846-.009-.155-.185-.225-.317-.126-.18.137-.365.273-.52.436-.312.33-.636.649-1.016.9-.26.173-.366.397-.41.697-.084.59-.29 1.15-.516 1.698-.211.512-.604.808-1.177.836-.17.009-.343-.001-.51.024-.65.099-1.15.449-1.287 1.08-.214.99-.225 1.958.652 2.73.705.619 1.423 1.206 2.225 1.703 1.426.884 2.944 1.596 4.427 2.372.843.442 1.555 1.037 2.194 1.728.463.5.87 1.042 1.224 1.625.206.337.437.661.683.97.167.212.49.198.774.01.136-.089.172-.302.078-.54-.138-.346-.336-.66-.627-.895-.34-.276-.412-.665-.497-1.047-.05-.225.183-.435.421-.426.243.01.437.12.605.28.225.215.445.436.66.66.206.214.455.334.746.377.132.02.272-.127.267-.262-.006-.208-.112-.377-.211-.547-.203-.346-.485-.622-.793-.878-.168-.14-.225-.324-.137-.532.086-.203.31-.297.581-.228.247.062.484.166.732.226.385.095.771.209 1.163.241.443.037.608-.272.399-.654-.14-.254-.31-.47-.593-.58a1.52 1.52 0 0 1-.372-.2.494.494 0 0 1 .091-.842c.123-.058.27-.072.41-.091.365-.049.733-.088 1.1-.133a.925.925 0 0 0 .465-.193c.27-.21.289-.5.017-.707-.384-.292-.786-.563-1.254-.709a9.894 9.894 0 0 1-2.319-1.052c-.038-.024-.104-.003-.181-.003l-.192.26c-.068.09-.127.19-.207.267-.221.217-.602.278-.87.135-.272-.146-.405-.38-.408-.692-.002-.236.086-.443.189-.644.295-.578.59-1.158.903-1.727" fill="#FFF"/>
    <path d="M128.333 98.395c-.244-.068-.486-.146-.728-.222-.188-.06-.381-.109-.56-.19a1.55 1.55 0 0 1-.426-.271c-.26-.246-.323-.595-.144-.954.218-.438.46-.865.72-1.278.276-.435-.112-.993-.563-.991-.347.001-.663.11-.98.23-.264.1-.522.231-.795.287-.528.108-.966-.212-1.028-.762-.035-.312.002-.636.03-.953.032-.375.09-.747.135-1.113-.028-.301-.037-.593-.087-.876-.046-.266-.297-.38-.519-.246-.441.268-.833.594-1.075 1.078-.168.335-.343.666-.507 1.003a3.526 3.526 0 0 1-1.444 1.538c-1.47.858-2.897 1.79-4.31 2.745-1.036.7-2.096 1.36-3.18 1.98-.59.337-1.171.693-1.766 1.024-.264.147-.446.35-.536.639a82.92 82.92 0 0 0-.549 1.829c-.072.254.044.379.314.35.727-.077 1.453-.17 2.18-.243.335-.034.676-.072 1.01-.049.509.035.774.508.605 1.003a2.067 2.067 0 0 1-.4.661c-.296.35-.605.688-.902 1.037-.122.144-.36.276-.247.496.105.205.355.108.542.112.479.012.957.009 1.436.004.455-.005.9.076 1.336.188.495.127.719.582.55 1.083-.062.188-.181.358-.29.524-.143.216-.314.412-.447.633-.057.095-.04.23.108.27a.74.74 0 0 0 .165.034c1.247.057 2.331-.341 3.182-1.293.613-.687 1.284-1.302 1.98-1.892a7.373 7.373 0 0 1 2.917-1.509c.954-.254 1.918-.453 2.88-.66.388-.082.768-.19 1.119-.38.343-.183.39-.471.13-.779-.13-.152-.295-.27-.424-.423-.334-.394-.358-.853-.058-1.273.116-.161.268-.298.419-.426.129-.11.282-.19.422-.288.295-.208.5-.462.442-.868-.058-.414-.254-.695-.657-.809" fill="#FFF"/>
    <path d="M113.826 109.39c-.29-.03-.586-.027-.873-.076-.61-.103-.882-.624-.61-1.16.09-.178.234-.33.357-.49.106-.138.224-.267.327-.406.074-.1.012-.258-.112-.266-.378-.025-.758-.034-1.136-.052-.41-.02-.827.004-1.225-.07-.813-.153-1.268-.956-.764-1.715.207-.312.461-.594.694-.89.106-.136.223-.266.31-.413.038-.063.024-.179-.097-.184a1.898 1.898 0 0 0-.346.026c-.636.092-1.272.187-1.755.258-.215 0-.274.002-.332 0-.86-.02-1.242-.468-1.062-1.282.068-.308.202-.6.299-.902.167-.521.33-1.043.49-1.567.032-.108-.112-.237-.21-.191-.292.134-.584.268-.864.422-4.192 2.306-8.484 4.414-12.85 6.378-1.362.613-2.572 1.488-3.91 2.141-.205.1-.205.253-.026.4.09.074.185.141.28.208 3.035 2.107 5.473 4.762 7.436 7.852.077.122.15.247.237.363.183.247.325.287.598.143.36-.191.706-.411 1.067-.6 1.733-.903 3.478-1.782 5.2-2.704 1.954-1.046 3.886-2.129 5.83-3.193.844-.462 1.693-.914 2.538-1.374.204-.112.403-.234.599-.36.042-.027.086-.093.084-.139-.004-.095-.086-.149-.174-.157" fill="#FFF"/>
    <path d="M47.224 150.992c-.526-.449-1.115-.807-1.727-1.13-4.346-2.286-8.69-4.576-13.036-6.863-3.61-1.899-7.268-3.7-11.015-5.317-2.083-.9-4.185-1.751-6.347-2.45-.298-.096-.607-.161-.914-.23-.044-.01-.118.026-.148.064-.058.074-.046.177.025.226.283.193.565.392.866.554 4.598 2.487 9.117 5.114 13.651 7.714 5.082 2.915 10.184 5.794 15.41 8.447.615.312 1.232.614 1.892.826.304.097.61.165 1.057.167-.014 0 .102 0 .216-.013.75-.088 1.082-.756.662-1.376-.158-.233-.375-.434-.592-.62" fill="#FFF"/>
    <path d="M45.258 156.977a7.007 7.007 0 0 0-1.252-.677c-2.157-.93-4.307-1.875-6.473-2.783-2.295-.963-4.607-1.884-6.907-2.835-3.436-1.422-6.862-2.87-10.304-4.277-2.744-1.122-5.503-2.204-8.313-3.156-.185-.062-.368-.136-.557-.184-.149-.039-.349-.148-.437.05-.07.153.122.23.232.3.236.148.48.285.728.414 1.885.98 3.767 1.967 5.66 2.932 6.55 3.343 13.222 6.436 19.91 9.492 1.754.802 3.54 1.535 5.317 2.288.593.251 1.212.427 1.863.453.14 0 .282.015.42-.003.735-.094 1.076-.796.702-1.427-.146-.246-.359-.425-.589-.587" fill="#FFF"/>
    <path d="M44.215 163.95c-.521-.306-1.098-.477-1.677-.644-1.184-.34-2.381-.648-3.55-1.032-3.626-1.192-7.356-2.004-11.093-2.794-2.107-.445-4.238-.772-6.367-1.11-.993-.157-1.994-.264-2.796-.368-.342 0-.487-.007-.629.005-.039.003-.096.062-.102.101-.007.043.024.12.06.135.317.13.633.262.96.368 2.887.935 5.8 1.795 8.715 2.651 2.337.686 4.693 1.314 6.97 2.179 2.409.914 4.876 1.667 7.38 2.308.36.092.727.167 1.096.22.402.058.806.04 1.191-.106.59-.224.801-.84.472-1.361-.153-.242-.381-.407-.63-.553" fill="#FFF"/>
    <path d="M136.466 68.059c-.82-.076-1.642-.065-2.464-.04-2.778.085-5.537.36-8.293.718-2.307.3-4.594.706-6.873 1.149-2.948.573-5.879 1.232-8.816 1.86-.415.089-.823.21-1.234.315l-.018-.065c-.301.077-.602.157-.904.232a91.96 91.96 0 0 0-4.835 1.325c-.703.217-1.413.414-2.113.638-1.24.399-2.474.811-3.71 1.218-.969.317-1.944.615-2.902.959-.584.21-1.145.481-1.708.744a2.073 2.073 0 0 0-.474.342c-.109.096-.156.24-.095.38.063.145.202.18.353.161.112-.014.223-.038.335-.056 1.487-.237 2.933-.644 4.383-1.03 2.3-.613 4.61-1.188 6.933-1.704 1.99-.442 3.993-.836 5.989-1.254 1.692-.354 3.379-.729 5.075-1.06 2.058-.402 4.123-.767 6.184-1.148 1.84-.34 3.676-.69 5.517-1.017 1.703-.302 3.407-.588 5.09-.987.468-.11.95-.167 1.418-.276 1.103-.256 2.215-.484 3.295-.83.136-.044.263-.095.359-.209.07-.083.043-.163-.017-.216-.132-.118-.304-.133-.475-.15" fill="#FFF"/>
    <path d="M115.69 55.658c.338-.149 2.027-.637 2.542-.548.312.054.41.076.304.396a3.423 3.423 0 0 1-.318.715c-.578.94-1.395 1.605-2.349 2.1-.183.094-.339.003-.352-.221-.045-.73-.015-1.077-.042-1.808-.006-.183.036-.556.214-.634m-1.222 11.038c.052.175.148.543.276.9.104.292.314.441.491.396.233-.06.281-.268.337-.465.226-.791.323-1.605.38-2.425.053-.76.091-1.52.143-2.28.005-.074.05-.183.103-.205.061-.024.175.005.227.055.71.675 1.36 1.411 1.978 2.177.345.428.69.856 1.04 1.278.317.38.68.708 1.092.973.266.17.543.316.86.364.412.061.66-.178.596-.612-.029-.2-.103-.394-.172-.586-.298-.834-.769-1.564-1.292-2.261-.767-1.022-1.628-1.954-2.542-2.835a6.59 6.59 0 0 1-.473-.501c-.087-.104-.054-.24.041-.31.206-.155.43-.283.643-.427.937-.637 1.738-1.411 2.294-2.43.254-.466.428-.956.442-1.5.021-.834-.374-1.478-1.118-1.793a2.711 2.711 0 0 0-.995-.205c-1.07-.029-4.555.077-4.435 1.56a4.374 4.374 0 0 0-.089.608c-.215 2.188-.34 4.381-.278 6.581.037 1.26.119 2.518.45 3.943" fill="#FFF"/>
    <path d="M96.64 64.646c.141-.444.317-.87.569-1.254.258-.396.587-.665 1.024-.775 1.014-.255 1.348-.043 1.584.98l.081.342c.383 1.865.365 3.721-.126 5.56-.104.391-.249.775-.415 1.14-.297.652-.757 1.134-1.384 1.382-.77.305-1.248.066-1.53-.727a6.779 6.779 0 0 1-.365-1.885c-.096-1.625.07-3.22.562-4.763m-1.58 8.157c.679 1.017 1.62 1.39 2.735 1.103 1.377-.353 2.404-1.23 3.084-2.577A10.474 10.474 0 0 0 102 66.69c.011-.884-.067-1.763-.179-2.635a5.628 5.628 0 0 0-.544-1.834c-.221-.438-.545-.781-.993-.786-.47-.005-.88-.187-1.315-.308-1.186-.33-2.21-.031-3.021 1.013a5.372 5.372 0 0 0-.479.704c-1.338 2.444-1.797 5.059-1.23 7.866.216.926.457 1.545.822 2.092" fill="#FFF"/>
    <path d="M89.115 73.603a1.836 1.836 0 0 1-.388-.194c-.802-.528-1.579-1.084-2.121-1.893a1.405 1.405 0 0 0-.168-.194c-.081-.082-.237-.053-.293.05-.207.382-.164.783-.046 1.168.383 1.248 1.098 2.282 2.206 3.005 1.432.934 3.259.376 3.951-1.171.264-.59.336-1.211.27-1.85-.11-1.089-.554-2.036-1.251-2.881-.516-.625-1.112-1.173-1.695-1.734-.374-.36-.755-.715-1.041-1.155-.317-.485-.395-1.01-.285-1.565.05-.257.148-.505.36-.673.647-.516 1.384-.713 2.205-.535.308.067.509.274.591.575.053.193.074.395.13.587.046.163.097.334.19.472a.476.476 0 0 0 .804.01c.731-1.017.7-2.65-.806-3.351-.292-.136-.6-.22-.923-.248-.613-.052-1.222-.04-1.922.16-.01.003-.124.026-.235.062-1.367.442-2.21 1.336-2.445 2.75-.14.841-.051 1.653.278 2.444.237.57.604 1.047 1.04 1.472.497.484 1.02.94 1.528 1.414.425.397.802.83 1.053 1.359.222.467.214.949.054 1.423-.16.475-.574.66-1.04.493" fill="#FFF"/>
    <path d="M107.22 59.05c.135-.045.273-.077.41-.115a.226.226 0 0 1 .002.011c.164-.046.325-.109.491-.134.588-.09.838.153.825.8-.008.396-.09.78-.285 1.12-.178.305-.358.62-.592.873-.281.305-.455.772-.942.81-.182-.387-.15-.815-.203-1.225-.062-.476-.12-.953-.16-1.432-.04-.49.016-.561.455-.708m-1.763 10.425c.09.449.226.879.488 1.247.296.414.763.359.933-.121.088-.25.13-.525.158-.792.108-1.053.122-2.11.112-3.168-.003-.332-.005-.665.02-.995.011-.165.13-.272.298-.236a4.85 4.85 0 0 1 1.652.7c.458.3.903.625 1.345.953.444.33.904.625 1.394.869.257.128.523.235.81.26.115.01.225-.025.293-.137.068-.114.037-.231-.016-.342-.013-.027-.029-.053-.044-.078-.95-1.547-2.104-2.847-3.765-3.534a3.844 3.844 0 0 1-.462-.222c-.085-.05-.095-.166-.043-.236a7 7 0 0 1 .452-.537c.498-.542.953-1.12 1.278-1.801.372-.78.517-1.596.33-2.46-.244-1.126-.955-1.769-2.035-1.838-.785-.05-1.515.171-2.212.534-.623.324-1.011.857-1.206 1.561-.145.527-.195 1.066-.212 1.611-.067 2.086.003 4.168.126 6.25.05.844.15 1.682.306 2.512" fill="#FFF"/>
    <path d="M123.302 54.774c.713 1.558 1.598 2.98 2.816 4.113.333.31.377.578.235 1.013a59.73 59.73 0 0 0-.942 3.201c-.185.697-.311 1.413-.438 2.127-.074.416-.096.842.009 1.262.014.058.025.118.043.175.105.343.388.44.65.208.15-.131.281-.29.402-.453.28-.38.492-.804.689-1.24a96.47 96.47 0 0 0 2.51-6.14 46.92 46.92 0 0 0 1.487-4.725c.112-.437.224-.876.235-1.336.005-.181.007-.357-.077-.529-.242-.488-.765-.598-1.202-.237-.25.207-.398.502-.534.8-.47 1.03-.928 2.066-1.402 3.094-.106.23-.132.61-.43.591-.212-.013-.265-.355-.376-.555-.522-.931-1.084-1.829-1.787-2.61-.252-.28-.518-.543-.834-.74-.338-.211-.684-.271-1.016-.025-.342.254-.37.653-.321 1.06.04.332.146.645.283.946" fill="#FFF"/>
    <g transform="translate(135 52)">
      <mask id="d" fill="#fff">
        <use xlink:href="#c"/>
      </mask>
      <path d="M2.491.016a.593.593 0 0 0-.608.213c-.109.132-.21.279-.28.436-.18.398-.366.796-.5 1.212a23.954 23.954 0 0 0-1.08 5.686c-.028.377-.053.764.07 1.234.008.015.049.164.127.191.169.06.231-.115.294-.24.066-.13.12-.266.172-.402a72.643 72.643 0 0 0 1.867-5.38c.168-.56.29-1.136.406-1.71.046-.224.054-.47.02-.697a.62.62 0 0 0-.488-.543" fill="#FFF" mask="url(#d)"/>
    </g>
    <path d="M134.234 63.973c.526-.128.864-.678.74-1.204a.965.965 0 0 0-1.197-.738.996.996 0 0 0-.752 1.19c.12.531.682.88 1.209.752" fill="#FFF"/>
  </g>
</svg>
