<svg
  viewBox="0 0 18 18"
  fill="none"
  xmlns="http://www.w3.org/2000/svg"
  style="width: var(--icon-width, 18px); height: var(--icon-height, 18px)">
  <path
    fill-rule="evenodd"
    clip-rule="evenodd"
    d="M2.991 5.12A7.35 7.35 0 0 1 9 2c3.843 0 7.003 2.965 7.324 6.726l.62-.62a.613.613 0 1 1 .867.866l-1.578 1.58a.612.612 0 0 1-.119.117l-.142.143a.613.613 0 0 1-.866 0l-1.84-1.84a.613.613 0 1 1 .867-.866l.984.983A6.115 6.115 0 0 0 9 3.226a6.111 6.111 0 0 0-5.007 2.601.613.613 0 1 1-1.002-.707Zm-.963 2.781a.613.613 0 0 1 .866 0l1.84 1.84a.613.613 0 1 1-.867.866l-.984-.983A6.115 6.115 0 0 0 9 15.487a6.111 6.111 0 0 0 5.007-2.602.613.613 0 1 1 1.002.707A7.35 7.35 0 0 1 9 16.712c-3.843 0-7.003-2.964-7.324-6.725l-.62.62a.613.613 0 1 1-.868-.867l1.579-1.578a.613.613 0 0 1 .12-.121l.14-.14Z"
    fill="var(--icon-fill, #181D1E)" />
</svg>
