<?xml version="1.0" encoding="UTF-8"?>
<svg width="138px" height="64px" viewBox="0 0 138 64" version="1.1" xmlns="http://www.w3.org/2000/svg" xmlns:xlink="http://www.w3.org/1999/xlink">
    <title>Group</title>
    <g id="Page-1" stroke="none" stroke-width="1" fill="none" fill-rule="evenodd">
        <g id="Startseite-mit-Animation--Copy-9" transform="translate(-315.000000, -13.000000)">
            <g id="Group" transform="translate(315.000000, 13.000000)">
                <path d="M80.6900688,21.8740726 L94.4953456,7.20243853 C90.1042696,3.76794238 84.1497044,1.20040642 77.3967618,-3.19744231e-14 L68.7476728,9.2031159 L60.0985837,-3.19744231e-14 C53.3456411,1.20040642 47.391076,3.73459776 43,7.20243853 L56.8052768,21.8740726 L43,36.5457066 C47.391076,39.9802028 53.3456411,42.5477387 60.0985837,43.7481451 L68.7476728,34.5450292 L77.3967618,43.7481451 C84.1497044,42.5477387 90.1042696,40.0132139 94.4953456,36.5457066 L80.6900688,21.8740726 Z" id="Fill-25" fill="#ED6A12"></path>
                <path d="M92.5659999,1.76716498 L92.8321257,1.76716498 C93.0982516,1.76716498 93.2313145,1.73382035 93.2313145,1.53375262 C93.2313145,1.3670295 93.1315173,1.30034026 92.8986572,1.30034026 L92.5992657,1.30034026 L92.5659999,1.76716498 Z M92.5659999,2.60078055 L92.3331398,2.60078055 L92.3331398,1.10027252 L92.8986572,1.10027252 C93.2313145,1.10027252 93.4309088,1.23365101 93.4309088,1.53375262 C93.4309088,1.8005096 93.2645802,1.93388809 93.0649858,1.93388809 L93.4641746,2.60078055 L93.1977161,2.60078055 L92.79886,1.93388809 L92.5659999,1.93388809 L92.5659999,2.60078055 Z M93.896629,1.83385422 C93.896629,1.23365101 93.4309088,0.766826291 92.8650588,0.766826291 C92.2666084,0.766826291 91.8008882,1.23365101 91.8008882,1.83385422 C91.8008882,2.46740205 92.2666084,2.93422677 92.8650588,2.93422677 C93.4309088,2.93422677 93.896629,2.46740205 93.896629,1.83385422 L93.896629,1.83385422 Z M91.5344297,1.83385422 C91.5344297,1.10027252 92.1335455,0.533413931 92.8321257,0.533413931 C93.5303734,0.533413931 94.1294891,1.10027252 94.1294891,1.83385422 C94.1294891,2.56743592 93.5303734,3.13429451 92.8321257,3.13429451 C92.1335455,3.13429451 91.5344297,2.56743592 91.5344297,1.83385422 L91.5344297,1.83385422 Z" id="Fill-27" fill="#ED6A12"></path>
                <path d="M92.5659999,1.76716498 L92.8321257,1.76716498 C93.0982516,1.76716498 93.2313145,1.73382035 93.2313145,1.53375262 C93.2313145,1.3670295 93.1315173,1.30034026 92.8986572,1.30034026 L92.5992657,1.30034026 L92.5659999,1.76716498 Z M92.5659999,2.60078055 L92.3331398,2.60078055 L92.3331398,1.10027252 L92.8986572,1.10027252 C93.2313145,1.10027252 93.4309088,1.23365101 93.4309088,1.53375262 C93.4309088,1.8005096 93.2645802,1.93388809 93.0649858,1.93388809 L93.4641746,2.60078055 L93.1977161,2.60078055 L92.79886,1.93388809 L92.5659999,1.93388809 L92.5659999,2.60078055 Z M93.896629,1.83385422 C93.896629,1.23365101 93.4309088,0.766826291 92.8650588,0.766826291 C92.2666084,0.766826291 91.8008882,1.23365101 91.8008882,1.83385422 C91.8008882,2.46740205 92.2666084,2.93422677 92.8650588,2.93422677 C93.4309088,2.93422677 93.896629,2.46740205 93.896629,1.83385422 L93.896629,1.83385422 Z M91.5344297,1.83385422 C91.5344297,1.10027252 92.1335455,0.533413931 92.8321257,0.533413931 C93.5303734,0.533413931 94.1294891,1.10027252 94.1294891,1.83385422 C94.1294891,2.56743592 93.5303734,3.13429451 92.8321257,3.13429451 C92.1335455,3.13429451 91.5344297,2.56743592 91.5344297,1.83385422 L91.5344297,1.83385422 Z" id="Fill-29" fill="#ED6A12"></path>
                <text id="FOR-ALL-OF-US" font-family="NiveauGroteskBold, Niveau Grotesk" font-size="16" font-weight="bold" letter-spacing="1.5" fill="#FFFFFF">
                    <tspan x="7.546" y="63">FOR ALL OF US</tspan>
                </text>
            </g>
        </g>
    </g>
</svg>
